<ttFont>
    <TTGlyph name=".notdef" xMin="193" yMin="0" xMax="1034" yMax="1462">
      <contour>
        <pt x="193" y="1462" on="1"/>
        <pt x="1034" y="1462" on="1"/>
        <pt x="1034" y="0" on="1"/>
        <pt x="193" y="0" on="1"/>
      </contour>
      <contour>
        <pt x="297" y="104" on="1"/>
        <pt x="930" y="104" on="1"/>
        <pt x="930" y="1358" on="1"/>
        <pt x="297" y="1358" on="1"/>
      </contour>
    </TTGlyph>
    <TTGlyph name="glyph00004" xMin="106" yMin="-20" xMax="1133" yMax="1483">
      <contour>
        <pt x="940" y="772" on="1"/>
        <pt x="940" y="1035" on="0"/>
        <pt x="715" y="1321" on="0"/>
        <pt x="512" y="1321" on="1"/>
        <pt x="427" y="1321" on="0"/>
        <pt x="286" y="1272" on="0"/>
        <pt x="227" y="1241" on="1"/>
        <pt x="164" y="1397" on="1"/>
        <pt x="316" y="1483" on="0"/>
        <pt x="520" y="1483" on="1"/>
        <pt x="806" y="1483" on="0"/>
        <pt x="1133" y="1083" on="0"/>
        <pt x="1133" y="733" on="1"/>
        <pt x="1133" y="362" on="0"/>
        <pt x="858" y="-20" on="0"/>
        <pt x="594" y="-20" on="1"/>
        <pt x="456" y="-20" on="0"/>
        <pt x="231" y="117" on="0"/>
        <pt x="106" y="359" on="0"/>
        <pt x="106" y="506" on="1"/>
        <pt x="106" y="648" on="0"/>
        <pt x="216" y="867" on="0"/>
        <pt x="418" y="985" on="0"/>
        <pt x="545" y="985" on="1"/>
        <pt x="679" y="985" on="0"/>
        <pt x="877" y="874" on="0"/>
        <pt x="928" y="772" on="1"/>
      </contour>
      <contour>
        <pt x="596" y="135" on="1"/>
        <pt x="687" y="135" on="0"/>
        <pt x="831" y="227" on="0"/>
        <pt x="922" y="415" on="0"/>
        <pt x="922" y="518" on="1"/>
        <pt x="922" y="595" on="0"/>
        <pt x="834" y="742" on="0"/>
        <pt x="683" y="829" on="0"/>
        <pt x="590" y="829" on="1"/>
        <pt x="447" y="829" on="0"/>
        <pt x="293" y="652" on="0"/>
        <pt x="293" y="489" on="1"/>
        <pt x="293" y="332" on="0"/>
        <pt x="463" y="135" on="0"/>
      </contour>
    </TTGlyph>
    <TTGlyph name="glyph00005" xMin="115" yMin="-20" xMax="1085" yMax="1483">
      <contour>
        <pt x="168" y="1098" on="1"/>
        <pt x="168" y="1275" on="0"/>
        <pt x="432" y="1483" on="0"/>
        <pt x="666" y="1483" on="1"/>
        <pt x="914" y="1483" on="0"/>
        <pt x="1085" y="1362" on="1"/>
        <pt x="1004" y="1227" on="1"/>
        <pt x="843" y="1331" on="0"/>
        <pt x="666" y="1331" on="1"/>
        <pt x="520" y="1331" on="0"/>
        <pt x="358" y="1200" on="0"/>
        <pt x="358" y="1090" on="1"/>
        <pt x="358" y="958" on="0"/>
        <pt x="557" y="834" on="0"/>
        <pt x="764" y="834" on="1"/>
        <pt x="852" y="834" on="1"/>
        <pt x="852" y="680" on="1"/>
        <pt x="754" y="680" on="1"/>
        <pt x="536" y="680" on="0"/>
        <pt x="307" y="535" on="0"/>
        <pt x="307" y="393" on="1"/>
        <pt x="307" y="271" on="0"/>
        <pt x="480" y="131" on="0"/>
        <pt x="649" y="131" on="1"/>
        <pt x="864" y="131" on="0"/>
        <pt x="1055" y="219" on="1"/>
        <pt x="1055" y="63" on="1"/>
        <pt x="889" y="-20" on="0"/>
        <pt x="629" y="-20" on="1"/>
        <pt x="382" y="-20" on="0"/>
        <pt x="115" y="194" on="0"/>
        <pt x="115" y="387" on="1"/>
        <pt x="115" y="535" on="0"/>
        <pt x="305" y="729" on="0"/>
        <pt x="479" y="754" on="1"/>
        <pt x="479" y="762" on="1"/>
        <pt x="325" y="788" on="0"/>
        <pt x="168" y="963" on="0"/>
      </contour>
    </TTGlyph>
    <TTGlyph name="glyph00006" xMin="115" yMin="-20" xMax="1198" yMax="1483">
      <contour>
        <pt x="639" y="1483" on="1"/>
        <pt x="916" y="1483" on="0"/>
        <pt x="1198" y="1105" on="0"/>
        <pt x="1198" y="733" on="1"/>
        <pt x="1198" y="376" on="0"/>
        <pt x="883" y="-20" on="0"/>
        <pt x="596" y="-20" on="1"/>
        <pt x="370" y="-20" on="0"/>
        <pt x="115" y="199" on="0"/>
        <pt x="115" y="387" on="1"/>
        <pt x="115" y="535" on="0"/>
        <pt x="305" y="729" on="0"/>
        <pt x="479" y="754" on="1"/>
        <pt x="479" y="762" on="1"/>
        <pt x="325" y="788" on="0"/>
        <pt x="168" y="963" on="0"/>
        <pt x="168" y="1098" on="1"/>
        <pt x="168" y="1275" on="0"/>
        <pt x="423" y="1483" on="0"/>
      </contour>
      <contour>
        <pt x="635" y="1325" on="1"/>
        <pt x="501" y="1325" on="0"/>
        <pt x="358" y="1202" on="0"/>
        <pt x="358" y="1090" on="1"/>
        <pt x="358" y="958" on="0"/>
        <pt x="557" y="834" on="0"/>
        <pt x="764" y="834" on="1"/>
        <pt x="811" y="834" on="1"/>
        <pt x="811" y="680" on="1"/>
        <pt x="754" y="680" on="1"/>
        <pt x="536" y="680" on="0"/>
        <pt x="307" y="535" on="0"/>
        <pt x="307" y="393" on="1"/>
        <pt x="307" y="271" on="0"/>
        <pt x="459" y="133" on="0"/>
        <pt x="604" y="133" on="1"/>
        <pt x="1004" y="133" on="0"/>
        <pt x="1004" y="733" on="1"/>
        <pt x="1004" y="1030" on="0"/>
        <pt x="822" y="1325" on="0"/>
      </contour>
    </TTGlyph>
    <TTGlyph name="glyph00007" xMin="125" yMin="-20" xMax="1290" yMax="1485">
      <contour>
        <pt x="1290" y="733" on="1"/>
        <pt x="1290" y="379" on="0"/>
        <pt x="984" y="-20" on="0"/>
        <pt x="709" y="-20" on="1"/>
        <pt x="430" y="-20" on="0"/>
        <pt x="125" y="373" on="0"/>
        <pt x="125" y="735" on="1"/>
        <pt x="125" y="1095" on="0"/>
        <pt x="429" y="1485" on="0"/>
        <pt x="711" y="1485" on="1"/>
        <pt x="986" y="1485" on="0"/>
        <pt x="1290" y="1087" on="0"/>
      </contour>
      <contour>
        <pt x="319" y="733" on="1"/>
        <pt x="319" y="444" on="0"/>
        <pt x="517" y="139" on="0"/>
        <pt x="709" y="139" on="1"/>
        <pt x="883" y="139" on="0"/>
        <pt x="1082" y="400" on="0"/>
        <pt x="1094" y="645" on="1"/>
        <pt x="1049" y="637" on="0"/>
        <pt x="997" y="637" on="1"/>
        <pt x="790" y="637" on="0"/>
        <pt x="567" y="865" on="0"/>
        <pt x="567" y="1065" on="1"/>
        <pt x="567" y="1188" on="0"/>
        <pt x="606" y="1311" on="1"/>
        <pt x="465" y="1271" on="0"/>
        <pt x="319" y="977" on="0"/>
      </contour>
      <contour>
        <pt x="1010" y="756" on="1"/>
        <pt x="1062" y="756" on="0"/>
        <pt x="1096" y="762" on="1"/>
        <pt x="1092" y="1027" on="0"/>
        <pt x="913" y="1309" on="0"/>
        <pt x="741" y="1321" on="1"/>
        <pt x="705" y="1210" on="0"/>
        <pt x="705" y="1077" on="1"/>
        <pt x="705" y="914" on="0"/>
        <pt x="864" y="756" on="0"/>
      </contour>
    </TTGlyph>
    <TTGlyph name="glyph00008" xMin="125" yMin="-20" xMax="1290" yMax="1485">
      <contour>
        <pt x="1290" y="733" on="1"/>
        <pt x="1290" y="379" on="0"/>
        <pt x="984" y="-20" on="0"/>
        <pt x="709" y="-20" on="1"/>
        <pt x="430" y="-20" on="0"/>
        <pt x="125" y="373" on="0"/>
        <pt x="125" y="735" on="1"/>
        <pt x="125" y="1095" on="0"/>
        <pt x="429" y="1485" on="0"/>
        <pt x="711" y="1485" on="1"/>
        <pt x="986" y="1485" on="0"/>
        <pt x="1290" y="1087" on="0"/>
      </contour>
      <contour>
        <pt x="319" y="733" on="1"/>
        <pt x="319" y="444" on="0"/>
        <pt x="517" y="139" on="0"/>
        <pt x="709" y="139" on="1"/>
        <pt x="901" y="139" on="0"/>
        <pt x="1096" y="442" on="0"/>
        <pt x="1096" y="733" on="1"/>
        <pt x="1096" y="1022" on="0"/>
        <pt x="902" y="1323" on="0"/>
        <pt x="711" y="1323" on="1"/>
        <pt x="518" y="1323" on="0"/>
        <pt x="319" y="1024" on="0"/>
      </contour>
    </TTGlyph>
    <TTGlyph name="glyph00009" xMin="125" yMin="-20" xMax="1290" yMax="1485">
      <contour>
        <pt x="1290" y="733" on="1"/>
        <pt x="1290" y="379" on="0"/>
        <pt x="984" y="-20" on="0"/>
        <pt x="709" y="-20" on="1"/>
        <pt x="430" y="-20" on="0"/>
        <pt x="125" y="373" on="0"/>
        <pt x="125" y="735" on="1"/>
        <pt x="125" y="1095" on="0"/>
        <pt x="429" y="1485" on="0"/>
        <pt x="711" y="1485" on="1"/>
        <pt x="986" y="1485" on="0"/>
        <pt x="1290" y="1087" on="0"/>
      </contour>
      <contour>
        <pt x="1096" y="733" on="1"/>
        <pt x="1096" y="1001" on="0"/>
        <pt x="929" y="1297" on="0"/>
        <pt x="770" y="1319" on="1"/>
        <pt x="770" y="143" on="1"/>
        <pt x="929" y="166" on="0"/>
        <pt x="1096" y="466" on="0"/>
      </contour>
      <contour>
        <pt x="319" y="733" on="1"/>
        <pt x="319" y="465" on="0"/>
        <pt x="487" y="167" on="0"/>
        <pt x="645" y="143" on="1"/>
        <pt x="645" y="1317" on="1"/>
        <pt x="486" y="1294" on="0"/>
        <pt x="319" y="998" on="0"/>
      </contour>
    </TTGlyph>
    <TTGlyph name="glyph00010" xMin="61" yMin="0" xMax="975" yMax="1462">
      <contour>
        <pt x="156" y="1071" on="1"/>
        <pt x="428" y="909" on="1"/>
        <pt x="428" y="1462" on="1"/>
        <pt x="612" y="1462" on="1"/>
        <pt x="612" y="801" on="1"/>
        <pt x="975" y="590" on="1"/>
        <pt x="885" y="449" on="1"/>
        <pt x="612" y="606" on="1"/>
        <pt x="612" y="0" on="1"/>
        <pt x="428" y="0" on="1"/>
        <pt x="428" y="713" on="1"/>
        <pt x="61" y="928" on="1"/>
      </contour>
    </TTGlyph>
    <TTGlyph name="glyph00011" xMin="20" yMin="-35" xMax="1057" yMax="1462">
      <contour>
        <pt x="1057" y="1462" on="1"/>
        <pt x="1057" y="0" on="1"/>
        <pt x="872" y="0" on="1"/>
        <pt x="833" y="96" on="0"/>
        <pt x="653" y="213" on="0"/>
        <pt x="537" y="213" on="1"/>
        <pt x="280" y="213" on="0"/>
        <pt x="201" y="-35" on="1"/>
        <pt x="20" y="23" on="1"/>
        <pt x="69" y="194" on="0"/>
        <pt x="334" y="389" on="0"/>
        <pt x="524" y="389" on="1"/>
        <pt x="636" y="389" on="0"/>
        <pt x="824" y="308" on="0"/>
        <pt x="872" y="244" on="1"/>
        <pt x="872" y="1462" on="1"/>
      </contour>
    </TTGlyph>
    <TTGlyph name="glyph00012" xMin="55" yMin="0" xMax="975" yMax="1462">
      <contour>
        <pt x="975" y="0" on="1"/>
        <pt x="788" y="0" on="1"/>
        <pt x="55" y="375" on="1"/>
        <pt x="150" y="535" on="1"/>
        <pt x="784" y="211" on="1"/>
        <pt x="784" y="1462" on="1"/>
        <pt x="975" y="1462" on="1"/>
      </contour>
    </TTGlyph>
    <TTGlyph name="glyph00013" xMin="55" yMin="0" xMax="1296" yMax="1462">
      <contour>
        <pt x="1296" y="0" on="1"/>
        <pt x="1110" y="0" on="1"/>
        <pt x="795" y="313" on="1"/>
        <pt x="598" y="0" on="1"/>
        <pt x="463" y="0" on="1"/>
        <pt x="55" y="391" on="1"/>
        <pt x="188" y="526" on="1"/>
        <pt x="520" y="203" on="1"/>
        <pt x="725" y="512" on="1"/>
        <pt x="848" y="512" on="1"/>
        <pt x="1106" y="254" on="1"/>
        <pt x="1106" y="1462" on="1"/>
        <pt x="1296" y="1462" on="1"/>
      </contour>
    </TTGlyph>
    <TTGlyph name="glyph00014" xMin="199" yMin="-35" xMax="1235" yMax="1462">
      <contour>
        <pt x="199" y="-35" on="1"/>
        <pt x="199" y="1427" on="1"/>
        <pt x="383" y="1427" on="1"/>
        <pt x="423" y="1329" on="0"/>
        <pt x="604" y="1214" on="0"/>
        <pt x="719" y="1214" on="1"/>
        <pt x="976" y="1214" on="0"/>
        <pt x="1055" y="1462" on="1"/>
        <pt x="1235" y="1405" on="1"/>
        <pt x="1186" y="1233" on="0"/>
        <pt x="918" y="1038" on="0"/>
        <pt x="731" y="1038" on="1"/>
        <pt x="620" y="1038" on="0"/>
        <pt x="432" y="1119" on="0"/>
        <pt x="383" y="1184" on="1"/>
        <pt x="383" y="-35" on="1"/>
      </contour>
    </TTGlyph>
    <TTGlyph name="glyph00015" xMin="104" yMin="0" xMax="1040" yMax="1485">
      <contour>
        <pt x="104" y="1049" on="1"/>
        <pt x="104" y="1245" on="0"/>
        <pt x="344" y="1485" on="0"/>
        <pt x="549" y="1485" on="1"/>
        <pt x="791" y="1485" on="0"/>
        <pt x="1040" y="1219" on="0"/>
        <pt x="1040" y="967" on="1"/>
        <pt x="1040" y="0" on="1"/>
        <pt x="856" y="0" on="1"/>
        <pt x="856" y="569" on="1"/>
        <pt x="688" y="569" on="1"/>
        <pt x="404" y="569" on="0"/>
        <pt x="104" y="815" on="0"/>
      </contour>
      <contour>
        <pt x="856" y="950" on="1"/>
        <pt x="856" y="1146" on="0"/>
        <pt x="706" y="1327" on="0"/>
        <pt x="561" y="1327" on="1"/>
        <pt x="438" y="1327" on="0"/>
        <pt x="295" y="1174" on="0"/>
        <pt x="295" y="1040" on="1"/>
        <pt x="295" y="875" on="0"/>
        <pt x="489" y="727" on="0"/>
        <pt x="709" y="727" on="1"/>
        <pt x="856" y="727" on="1"/>
      </contour>
    </TTGlyph>
    <TTGlyph name="glyph00016" xMin="102" yMin="-23" xMax="1307" yMax="1462">
      <contour>
        <pt x="102" y="336" on="1"/>
        <pt x="102" y="523" on="0"/>
        <pt x="383" y="754" on="0"/>
        <pt x="637" y="770" on="1"/>
        <pt x="637" y="1462" on="1"/>
        <pt x="821" y="1462" on="1"/>
        <pt x="821" y="768" on="1"/>
        <pt x="1053" y="749" on="0"/>
        <pt x="1307" y="536" on="0"/>
        <pt x="1307" y="362" on="1"/>
        <pt x="1307" y="234" on="0"/>
        <pt x="1172" y="35" on="0"/>
        <pt x="1047" y="-20" on="1"/>
        <pt x="971" y="119" on="1"/>
        <pt x="1114" y="194" on="0"/>
        <pt x="1114" y="346" on="1"/>
        <pt x="1114" y="560" on="0"/>
        <pt x="821" y="604" on="1"/>
        <pt x="821" y="385" on="1"/>
        <pt x="821" y="191" on="0"/>
        <pt x="627" y="-23" on="0"/>
        <pt x="455" y="-23" on="1"/>
        <pt x="289" y="-23" on="0"/>
        <pt x="102" y="168" on="0"/>
      </contour>
      <contour>
        <pt x="637" y="612" on="1"/>
        <pt x="293" y="587" on="0"/>
        <pt x="293" y="336" on="1"/>
        <pt x="293" y="243" on="0"/>
        <pt x="387" y="135" on="0"/>
        <pt x="463" y="135" on="1"/>
        <pt x="543" y="135" on="0"/>
        <pt x="637" y="255" on="0"/>
        <pt x="637" y="367" on="1"/>
      </contour>
    </TTGlyph>
    <TTGlyph name="glyph00017" xMin="115" yMin="-20" xMax="1198" yMax="1483">
      <contour>
        <pt x="639" y="1483" on="1"/>
        <pt x="916" y="1483" on="0"/>
        <pt x="1198" y="1105" on="0"/>
        <pt x="1198" y="733" on="1"/>
        <pt x="1198" y="376" on="0"/>
        <pt x="883" y="-20" on="0"/>
        <pt x="596" y="-20" on="1"/>
        <pt x="370" y="-20" on="0"/>
        <pt x="115" y="199" on="0"/>
        <pt x="115" y="387" on="1"/>
        <pt x="115" y="535" on="0"/>
        <pt x="305" y="729" on="0"/>
        <pt x="479" y="754" on="1"/>
        <pt x="479" y="762" on="1"/>
        <pt x="325" y="788" on="0"/>
        <pt x="168" y="963" on="0"/>
        <pt x="168" y="1098" on="1"/>
        <pt x="168" y="1275" on="0"/>
        <pt x="423" y="1483" on="0"/>
      </contour>
      <contour>
        <pt x="604" y="133" on="1"/>
        <pt x="984" y="133" on="0"/>
        <pt x="1001" y="680" on="1"/>
        <pt x="754" y="680" on="1"/>
        <pt x="536" y="680" on="0"/>
        <pt x="307" y="535" on="0"/>
        <pt x="307" y="393" on="1"/>
        <pt x="307" y="271" on="0"/>
        <pt x="459" y="133" on="0"/>
      </contour>
      <contour>
        <pt x="999" y="834" on="1"/>
        <pt x="990" y="1034" on="0"/>
        <pt x="856" y="1285" on="0"/>
        <pt x="741" y="1321" on="1"/>
        <pt x="702" y="1207" on="0"/>
        <pt x="702" y="1118" on="1"/>
        <pt x="702" y="1032" on="0"/>
        <pt x="775" y="883" on="0"/>
        <pt x="840" y="834" on="1"/>
      </contour>
      <contour>
        <pt x="350" y="1090" on="1"/>
        <pt x="350" y="854" on="0"/>
        <pt x="686" y="834" on="1"/>
        <pt x="571" y="954" on="0"/>
        <pt x="571" y="1108" on="1"/>
        <pt x="571" y="1219" on="0"/>
        <pt x="614" y="1329" on="1"/>
        <pt x="485" y="1325" on="0"/>
        <pt x="350" y="1199" on="0"/>
      </contour>
    </TTGlyph>
    <TTGlyph name="glyph00018" xMin="158" yMin="-20" xMax="1444" yMax="1462">
      <contour>
        <pt x="520" y="-20" on="1"/>
        <pt x="338" y="-20" on="0"/>
        <pt x="158" y="330" on="0"/>
        <pt x="158" y="684" on="1"/>
        <pt x="158" y="904" on="0"/>
        <pt x="217" y="1273" on="0"/>
        <pt x="279" y="1462" on="1"/>
        <pt x="475" y="1462" on="1"/>
        <pt x="352" y="1067" on="0"/>
        <pt x="352" y="680" on="1"/>
        <pt x="352" y="408" on="0"/>
        <pt x="440" y="139" on="0"/>
        <pt x="541" y="139" on="1"/>
        <pt x="628" y="139" on="0"/>
        <pt x="709" y="322" on="0"/>
        <pt x="709" y="516" on="1"/>
        <pt x="709" y="858" on="1"/>
        <pt x="893" y="858" on="1"/>
        <pt x="893" y="516" on="1"/>
        <pt x="893" y="322" on="0"/>
        <pt x="974" y="139" on="0"/>
        <pt x="1059" y="139" on="1"/>
        <pt x="1162" y="139" on="0"/>
        <pt x="1249" y="408" on="0"/>
        <pt x="1249" y="680" on="1"/>
        <pt x="1249" y="884" on="0"/>
        <pt x="1196" y="1240" on="0"/>
        <pt x="1126" y="1462" on="1"/>
        <pt x="1323" y="1462" on="1"/>
        <pt x="1389" y="1253" on="0"/>
        <pt x="1444" y="895" on="0"/>
        <pt x="1444" y="684" on="1"/>
        <pt x="1444" y="-20" on="0"/>
        <pt x="1075" y="-20" on="1"/>
        <pt x="865" y="-20" on="0"/>
        <pt x="805" y="199" on="1"/>
        <pt x="795" y="199" on="1"/>
        <pt x="759" y="86" on="0"/>
        <pt x="622" y="-20" on="0"/>
      </contour>
    </TTGlyph>
    <TTGlyph name="glyph00019" xMin="70" yMin="0" xMax="1628" yMax="1483">
      <contour>
        <pt x="1628" y="975" on="1"/>
        <pt x="1555" y="886" on="0"/>
        <pt x="1306" y="744" on="0"/>
        <pt x="1165" y="709" on="1"/>
        <pt x="965" y="0" on="1"/>
        <pt x="764" y="0" on="1"/>
        <pt x="567" y="717" on="1"/>
        <pt x="336" y="772" on="0"/>
        <pt x="70" y="1034" on="0"/>
        <pt x="70" y="1208" on="1"/>
        <pt x="70" y="1337" on="0"/>
        <pt x="215" y="1483" on="0"/>
        <pt x="336" y="1483" on="1"/>
        <pt x="450" y="1483" on="0"/>
        <pt x="578" y="1355" on="0"/>
        <pt x="614" y="1221" on="1"/>
        <pt x="721" y="831" on="1"/>
        <pt x="789" y="821" on="0"/>
        <pt x="883" y="821" on="1"/>
        <pt x="945" y="821" on="0"/>
        <pt x="1020" y="829" on="1"/>
        <pt x="1192" y="1462" on="1"/>
        <pt x="1380" y="1462" on="1"/>
        <pt x="1210" y="866" on="1"/>
        <pt x="1389" y="924" on="0"/>
        <pt x="1520" y="1077" on="1"/>
      </contour>
      <contour>
        <pt x="326" y="1325" on="1"/>
        <pt x="292" y="1325" on="0"/>
        <pt x="240" y="1269" on="0"/>
        <pt x="240" y="1212" on="1"/>
        <pt x="240" y="1100" on="0"/>
        <pt x="392" y="921" on="0"/>
        <pt x="522" y="877" on="1"/>
        <pt x="440" y="1188" on="1"/>
        <pt x="421" y="1263" on="0"/>
        <pt x="366" y="1325" on="0"/>
      </contour>
      <contour>
        <pt x="864" y="205" on="1"/>
        <pt x="874" y="260" on="0"/>
        <pt x="900" y="376" on="0"/>
        <pt x="981" y="682" on="1"/>
        <pt x="937" y="678" on="0"/>
        <pt x="893" y="678" on="1"/>
        <pt x="828" y="678" on="0"/>
        <pt x="758" y="684" on="1"/>
        <pt x="834" y="360" on="0"/>
      </contour>
    </TTGlyph>
    <TTGlyph name="glyph00020" xMin="102" yMin="0" xMax="1307" yMax="1485">
      <contour>
        <pt x="1307" y="1126" on="1"/>
        <pt x="1307" y="937" on="0"/>
        <pt x="1021" y="708" on="0"/>
        <pt x="772" y="692" on="1"/>
        <pt x="772" y="0" on="1"/>
        <pt x="588" y="0" on="1"/>
        <pt x="588" y="694" on="1"/>
        <pt x="356" y="713" on="0"/>
        <pt x="102" y="926" on="0"/>
        <pt x="102" y="1100" on="1"/>
        <pt x="102" y="1228" on="0"/>
        <pt x="237" y="1427" on="0"/>
        <pt x="362" y="1483" on="1"/>
        <pt x="438" y="1343" on="1"/>
        <pt x="295" y="1268" on="0"/>
        <pt x="295" y="1116" on="1"/>
        <pt x="295" y="902" on="0"/>
        <pt x="588" y="858" on="1"/>
        <pt x="588" y="1077" on="1"/>
        <pt x="588" y="1271" on="0"/>
        <pt x="782" y="1485" on="0"/>
        <pt x="954" y="1485" on="1"/>
        <pt x="1120" y="1485" on="0"/>
        <pt x="1307" y="1294" on="0"/>
      </contour>
      <contour>
        <pt x="772" y="850" on="1"/>
        <pt x="1116" y="875" on="0"/>
        <pt x="1116" y="1126" on="1"/>
        <pt x="1116" y="1219" on="0"/>
        <pt x="1022" y="1327" on="0"/>
        <pt x="946" y="1327" on="1"/>
        <pt x="866" y="1327" on="0"/>
        <pt x="772" y="1207" on="0"/>
        <pt x="772" y="1096" on="1"/>
      </contour>
    </TTGlyph>
    <TTGlyph name="glyph00021" xMin="39" yMin="0" xMax="862" yMax="1462">
      <contour>
        <pt x="862" y="1462" on="1"/>
        <pt x="862" y="0" on="1"/>
        <pt x="678" y="0" on="1"/>
        <pt x="678" y="1298" on="1"/>
        <pt x="39" y="1298" on="1"/>
        <pt x="39" y="1462" on="1"/>
      </contour>
    </TTGlyph>
    <TTGlyph name="glyph00022" xMin="115" yMin="-20" xMax="1165" yMax="1483">
      <contour>
        <pt x="608" y="1483" on="1"/>
        <pt x="751" y="1483" on="0"/>
        <pt x="941" y="1364" on="0"/>
        <pt x="981" y="1264" on="1"/>
        <pt x="981" y="1462" on="1"/>
        <pt x="1165" y="1462" on="1"/>
        <pt x="1165" y="0" on="1"/>
        <pt x="981" y="0" on="1"/>
        <pt x="981" y="227" on="1"/>
        <pt x="929" y="108" on="0"/>
        <pt x="705" y="-20" on="0"/>
        <pt x="559" y="-20" on="1"/>
        <pt x="356" y="-20" on="0"/>
        <pt x="115" y="202" on="0"/>
        <pt x="115" y="387" on="1"/>
        <pt x="115" y="535" on="0"/>
        <pt x="305" y="729" on="0"/>
        <pt x="479" y="754" on="1"/>
        <pt x="479" y="762" on="1"/>
        <pt x="325" y="788" on="0"/>
        <pt x="168" y="963" on="0"/>
        <pt x="168" y="1098" on="1"/>
        <pt x="168" y="1271" on="0"/>
        <pt x="410" y="1483" on="0"/>
      </contour>
      <contour>
        <pt x="616" y="1325" on="1"/>
        <pt x="496" y="1325" on="0"/>
        <pt x="358" y="1200" on="0"/>
        <pt x="358" y="1090" on="1"/>
        <pt x="358" y="958" on="0"/>
        <pt x="557" y="834" on="0"/>
        <pt x="764" y="834" on="1"/>
        <pt x="811" y="834" on="1"/>
        <pt x="811" y="680" on="1"/>
        <pt x="754" y="680" on="1"/>
        <pt x="536" y="680" on="0"/>
        <pt x="307" y="535" on="0"/>
        <pt x="307" y="393" on="1"/>
        <pt x="307" y="271" on="0"/>
        <pt x="456" y="133" on="0"/>
        <pt x="584" y="133" on="1"/>
        <pt x="774" y="133" on="0"/>
        <pt x="976" y="423" on="0"/>
        <pt x="981" y="705" on="1"/>
        <pt x="981" y="733" on="1"/>
        <pt x="981" y="1041" on="0"/>
        <pt x="804" y="1325" on="0"/>
      </contour>
    </TTGlyph>
    <TTGlyph name="glyph00023" xMin="27" yMin="0" xMax="1030" yMax="1483">
      <contour>
        <pt x="27" y="907" on="1"/>
        <pt x="27" y="1188" on="0"/>
        <pt x="281" y="1483" on="0"/>
        <pt x="541" y="1483" on="1"/>
        <pt x="1030" y="1483" on="0"/>
        <pt x="1030" y="954" on="1"/>
        <pt x="1030" y="0" on="1"/>
        <pt x="846" y="0" on="1"/>
        <pt x="846" y="918" on="1"/>
        <pt x="846" y="1131" on="0"/>
        <pt x="694" y="1323" on="0"/>
        <pt x="530" y="1323" on="1"/>
        <pt x="209" y="1323" on="0"/>
        <pt x="209" y="907" on="1"/>
      </contour>
    </TTGlyph>
    <TTGlyph name="glyph00024" xMin="125" yMin="-20" xMax="1151" yMax="1483">
      <contour>
        <pt x="967" y="211" on="1"/>
        <pt x="853" y="-20" on="0"/>
        <pt x="612" y="-20" on="1"/>
        <pt x="376" y="-20" on="0"/>
        <pt x="125" y="367" on="0"/>
        <pt x="125" y="729" on="1"/>
        <pt x="125" y="1094" on="0"/>
        <pt x="389" y="1483" on="0"/>
        <pt x="643" y="1483" on="1"/>
        <pt x="752" y="1483" on="0"/>
        <pt x="920" y="1371" on="0"/>
        <pt x="967" y="1270" on="1"/>
        <pt x="967" y="1462" on="1"/>
        <pt x="1151" y="1462" on="1"/>
        <pt x="1151" y="0" on="1"/>
        <pt x="967" y="0" on="1"/>
      </contour>
      <contour>
        <pt x="651" y="1327" on="1"/>
        <pt x="513" y="1327" on="0"/>
        <pt x="336" y="1127" on="0"/>
        <pt x="336" y="971" on="1"/>
        <pt x="336" y="819" on="0"/>
        <pt x="507" y="631" on="0"/>
        <pt x="649" y="631" on="1"/>
        <pt x="791" y="631" on="0"/>
        <pt x="967" y="826" on="0"/>
        <pt x="967" y="979" on="1"/>
        <pt x="967" y="1134" on="0"/>
        <pt x="787" y="1327" on="0"/>
      </contour>
      <contour>
        <pt x="317" y="690" on="1"/>
        <pt x="317" y="515" on="0"/>
        <pt x="402" y="270" on="0"/>
        <pt x="555" y="141" on="0"/>
        <pt x="655" y="141" on="1"/>
        <pt x="772" y="141" on="0"/>
        <pt x="934" y="291" on="0"/>
        <pt x="967" y="426" on="1"/>
        <pt x="967" y="700" on="1"/>
        <pt x="921" y="607" on="0"/>
        <pt x="750" y="502" on="0"/>
        <pt x="647" y="502" on="1"/>
        <pt x="543" y="502" on="0"/>
        <pt x="377" y="598" on="0"/>
        <pt x="324" y="690" on="1"/>
      </contour>
    </TTGlyph>
    <TTGlyph name="glyph00025" xMin="125" yMin="-20" xMax="1102" yMax="1483">
      <contour>
        <pt x="754" y="1321" on="1"/>
        <pt x="552" y="1321" on="0"/>
        <pt x="319" y="1006" on="0"/>
        <pt x="319" y="731" on="1"/>
        <pt x="319" y="449" on="0"/>
        <pt x="542" y="141" on="0"/>
        <pt x="748" y="141" on="1"/>
        <pt x="879" y="141" on="0"/>
        <pt x="1044" y="199" on="1"/>
        <pt x="1044" y="39" on="1"/>
        <pt x="964" y="5" on="0"/>
        <pt x="810" y="-20" on="0"/>
        <pt x="715" y="-20" on="1"/>
        <pt x="431" y="-20" on="0"/>
        <pt x="125" y="374" on="0"/>
        <pt x="125" y="733" on="1"/>
        <pt x="125" y="959" on="0"/>
        <pt x="274" y="1300" on="0"/>
        <pt x="555" y="1483" on="0"/>
        <pt x="745" y="1483" on="1"/>
        <pt x="950" y="1483" on="0"/>
        <pt x="1102" y="1397" on="1"/>
        <pt x="1038" y="1241" on="1"/>
        <pt x="888" y="1321" on="0"/>
      </contour>
    </TTGlyph>
    <TTGlyph name="glyph00026" xMin="94" yMin="0" xMax="985" yMax="1485">
      <contour>
        <pt x="555" y="500" on="1"/>
        <pt x="342" y="500" on="0"/>
        <pt x="94" y="754" on="0"/>
        <pt x="94" y="975" on="1"/>
        <pt x="94" y="1205" on="0"/>
        <pt x="387" y="1485" on="0"/>
        <pt x="633" y="1485" on="1"/>
        <pt x="745" y="1485" on="0"/>
        <pt x="926" y="1423" on="0"/>
        <pt x="985" y="1378" on="1"/>
        <pt x="909" y="1235" on="1"/>
        <pt x="776" y="1327" on="0"/>
        <pt x="623" y="1327" on="1"/>
        <pt x="463" y="1327" on="0"/>
        <pt x="281" y="1145" on="0"/>
        <pt x="281" y="981" on="1"/>
        <pt x="281" y="824" on="0"/>
        <pt x="444" y="655" on="0"/>
        <pt x="594" y="655" on="1"/>
        <pt x="666" y="655" on="0"/>
        <pt x="814" y="703" on="0"/>
        <pt x="854" y="735" on="1"/>
        <pt x="971" y="629" on="1"/>
        <pt x="631" y="0" on="1"/>
        <pt x="426" y="0" on="1"/>
        <pt x="735" y="532" on="1"/>
        <pt x="654" y="500" on="0"/>
      </contour>
    </TTGlyph>
    <TTGlyph name="glyph00027" xMin="125" yMin="-20" xMax="1411" yMax="1485">
      <contour>
        <pt x="1217" y="684" on="1"/>
        <pt x="1217" y="997" on="0"/>
        <pt x="993" y="1323" on="0"/>
        <pt x="772" y="1323" on="1"/>
        <pt x="551" y="1323" on="0"/>
        <pt x="319" y="996" on="0"/>
        <pt x="319" y="680" on="1"/>
        <pt x="319" y="139" on="0"/>
        <pt x="508" y="139" on="1"/>
        <pt x="595" y="139" on="0"/>
        <pt x="676" y="322" on="0"/>
        <pt x="676" y="516" on="1"/>
        <pt x="676" y="612" on="1"/>
        <pt x="860" y="612" on="1"/>
        <pt x="860" y="516" on="1"/>
        <pt x="860" y="322" on="0"/>
        <pt x="941" y="139" on="0"/>
        <pt x="1026" y="139" on="1"/>
        <pt x="1124" y="139" on="0"/>
        <pt x="1217" y="395" on="0"/>
      </contour>
      <contour>
        <pt x="125" y="684" on="1"/>
        <pt x="125" y="926" on="0"/>
        <pt x="279" y="1290" on="0"/>
        <pt x="572" y="1485" on="0"/>
        <pt x="772" y="1485" on="1"/>
        <pt x="1073" y="1485" on="0"/>
        <pt x="1411" y="1058" on="0"/>
        <pt x="1411" y="684" on="1"/>
        <pt x="1411" y="340" on="0"/>
        <pt x="1221" y="-20" on="0"/>
        <pt x="1042" y="-20" on="1"/>
        <pt x="832" y="-20" on="0"/>
        <pt x="772" y="199" on="1"/>
        <pt x="762" y="199" on="1"/>
        <pt x="726" y="86" on="0"/>
        <pt x="589" y="-20" on="0"/>
        <pt x="487" y="-20" on="1"/>
        <pt x="305" y="-20" on="0"/>
        <pt x="125" y="330" on="0"/>
      </contour>
    </TTGlyph>
    <TTGlyph name="glyph00028" xMin="125" yMin="-20" xMax="1411" yMax="1485">
      <contour>
        <pt x="319" y="680" on="1"/>
        <pt x="319" y="139" on="0"/>
        <pt x="508" y="139" on="1"/>
        <pt x="595" y="139" on="0"/>
        <pt x="676" y="322" on="0"/>
        <pt x="676" y="516" on="1"/>
        <pt x="676" y="612" on="1"/>
        <pt x="860" y="612" on="1"/>
        <pt x="860" y="516" on="1"/>
        <pt x="860" y="322" on="0"/>
        <pt x="941" y="139" on="0"/>
        <pt x="1026" y="139" on="1"/>
        <pt x="1126" y="139" on="0"/>
        <pt x="1215" y="400" on="0"/>
        <pt x="1217" y="649" on="1"/>
        <pt x="1194" y="644" on="0"/>
        <pt x="1092" y="637" on="0"/>
        <pt x="1071" y="637" on="1"/>
        <pt x="856" y="637" on="0"/>
        <pt x="629" y="857" on="0"/>
        <pt x="629" y="1065" on="1"/>
        <pt x="629" y="1203" on="0"/>
        <pt x="670" y="1313" on="1"/>
        <pt x="319" y="1235" on="0"/>
      </contour>
      <contour>
        <pt x="1090" y="756" on="1"/>
        <pt x="1160" y="756" on="0"/>
        <pt x="1214" y="766" on="1"/>
        <pt x="1203" y="1027" on="0"/>
        <pt x="994" y="1312" on="0"/>
        <pt x="803" y="1321" on="1"/>
        <pt x="788" y="1282" on="0"/>
        <pt x="766" y="1141" on="0"/>
        <pt x="766" y="1077" on="1"/>
        <pt x="766" y="914" on="0"/>
        <pt x="926" y="756" on="0"/>
      </contour>
      <contour>
        <pt x="125" y="684" on="1"/>
        <pt x="125" y="926" on="0"/>
        <pt x="279" y="1290" on="0"/>
        <pt x="572" y="1485" on="0"/>
        <pt x="772" y="1485" on="1"/>
        <pt x="1073" y="1485" on="0"/>
        <pt x="1411" y="1058" on="0"/>
        <pt x="1411" y="684" on="1"/>
        <pt x="1411" y="340" on="0"/>
        <pt x="1221" y="-20" on="0"/>
        <pt x="1042" y="-20" on="1"/>
        <pt x="832" y="-20" on="0"/>
        <pt x="772" y="199" on="1"/>
        <pt x="762" y="199" on="1"/>
        <pt x="726" y="86" on="0"/>
        <pt x="589" y="-20" on="0"/>
        <pt x="487" y="-20" on="1"/>
        <pt x="305" y="-20" on="0"/>
        <pt x="125" y="330" on="0"/>
      </contour>
    </TTGlyph>
    <TTGlyph name="glyph00029" xMin="199" yMin="0" xMax="1135" yMax="1485">
      <contour>
        <pt x="1135" y="1049" on="1"/>
        <pt x="1135" y="815" on="0"/>
        <pt x="834" y="569" on="0"/>
        <pt x="551" y="569" on="1"/>
        <pt x="383" y="569" on="1"/>
        <pt x="383" y="0" on="1"/>
        <pt x="199" y="0" on="1"/>
        <pt x="199" y="967" on="1"/>
        <pt x="199" y="1219" on="0"/>
        <pt x="448" y="1485" on="0"/>
        <pt x="690" y="1485" on="1"/>
        <pt x="895" y="1485" on="0"/>
        <pt x="1135" y="1245" on="0"/>
      </contour>
      <contour>
        <pt x="383" y="727" on="1"/>
        <pt x="530" y="727" on="1"/>
        <pt x="750" y="727" on="0"/>
        <pt x="944" y="875" on="0"/>
        <pt x="944" y="1040" on="1"/>
        <pt x="944" y="1172" on="0"/>
        <pt x="801" y="1327" on="0"/>
        <pt x="678" y="1327" on="1"/>
        <pt x="533" y="1327" on="0"/>
        <pt x="383" y="1146" on="0"/>
        <pt x="383" y="950" on="1"/>
      </contour>
    </TTGlyph>
    <TTGlyph name="glyph00030" xMin="53" yMin="-20" xMax="1008" yMax="1483">
      <contour>
        <pt x="954" y="1120" on="1"/>
        <pt x="954" y="980" on="0"/>
        <pt x="791" y="799" on="0"/>
        <pt x="643" y="774" on="1"/>
        <pt x="643" y="766" on="1"/>
        <pt x="821" y="740" on="0"/>
        <pt x="1008" y="557" on="0"/>
        <pt x="1008" y="412" on="1"/>
        <pt x="1008" y="218" on="0"/>
        <pt x="711" y="-20" on="0"/>
        <pt x="465" y="-20" on="1"/>
        <pt x="352" y="-20" on="0"/>
        <pt x="135" y="22" on="0"/>
        <pt x="57" y="59" on="1"/>
        <pt x="57" y="219" on="1"/>
        <pt x="257" y="131" on="0"/>
        <pt x="455" y="131" on="1"/>
        <pt x="622" y="131" on="0"/>
        <pt x="815" y="268" on="0"/>
        <pt x="815" y="397" on="1"/>
        <pt x="815" y="545" on="0"/>
        <pt x="617" y="680" on="0"/>
        <pt x="410" y="680" on="1"/>
        <pt x="270" y="680" on="1"/>
        <pt x="270" y="834" on="1"/>
        <pt x="354" y="834" on="1"/>
        <pt x="565" y="834" on="0"/>
        <pt x="764" y="958" on="0"/>
        <pt x="764" y="1087" on="1"/>
        <pt x="764" y="1207" on="0"/>
        <pt x="609" y="1331" on="0"/>
        <pt x="463" y="1331" on="1"/>
        <pt x="286" y="1331" on="0"/>
        <pt x="127" y="1227" on="1"/>
        <pt x="53" y="1362" on="1"/>
        <pt x="138" y="1419" on="0"/>
        <pt x="359" y="1483" on="0"/>
        <pt x="483" y="1483" on="1"/>
        <pt x="713" y="1483" on="0"/>
        <pt x="954" y="1297" on="0"/>
      </contour>
    </TTGlyph>
    <TTGlyph name="glyph00031" xMin="199" yMin="0" xMax="1022" yMax="1462">
      <contour>
        <pt x="199" y="0" on="1"/>
        <pt x="199" y="1462" on="1"/>
        <pt x="383" y="1462" on="1"/>
        <pt x="383" y="164" on="1"/>
        <pt x="1022" y="164" on="1"/>
        <pt x="1022" y="0" on="1"/>
      </contour>
    </TTGlyph>
    <TTGlyph name="glyph00032" xMin="0" yMin="-20" xMax="1159" yMax="1462">
      <contour>
        <pt x="690" y="745" on="1"/>
        <pt x="765" y="631" on="1"/>
        <pt x="835" y="523" on="0"/>
        <pt x="901" y="358" on="0"/>
        <pt x="901" y="289" on="1"/>
        <pt x="901" y="150" on="0"/>
        <pt x="725" y="-20" on="0"/>
        <pt x="588" y="-20" on="1"/>
        <pt x="446" y="-20" on="0"/>
        <pt x="279" y="138" on="0"/>
        <pt x="279" y="283" on="1"/>
        <pt x="279" y="421" on="0"/>
        <pt x="417" y="634" on="1"/>
        <pt x="487" y="743" on="1"/>
        <pt x="0" y="1462" on="1"/>
        <pt x="201" y="1462" on="1"/>
        <pt x="586" y="887" on="1"/>
        <pt x="961" y="1462" on="1"/>
        <pt x="1159" y="1462" on="1"/>
      </contour>
      <contour>
        <pt x="733" y="287" on="1"/>
        <pt x="733" y="393" on="0"/>
        <pt x="584" y="602" on="1"/>
        <pt x="444" y="398" on="0"/>
        <pt x="444" y="283" on="1"/>
        <pt x="444" y="212" on="0"/>
        <pt x="519" y="131" on="0"/>
        <pt x="586" y="131" on="1"/>
        <pt x="660" y="131" on="0"/>
        <pt x="733" y="218" on="0"/>
      </contour>
    </TTGlyph>
    <TTGlyph name="glyph00033" xMin="-39" yMin="-20" xMax="1219" yMax="1483">
      <contour>
        <pt x="610" y="1483" on="1"/>
        <pt x="789" y="1483" on="0"/>
        <pt x="1018" y="1303" on="0"/>
        <pt x="1018" y="1159" on="1"/>
        <pt x="1018" y="1022" on="0"/>
        <pt x="810" y="832" on="0"/>
        <pt x="627" y="799" on="1"/>
        <pt x="748" y="731" on="1"/>
        <pt x="1048" y="731" on="0"/>
        <pt x="1219" y="635" on="1"/>
        <pt x="1155" y="508" on="1"/>
        <pt x="1042" y="572" on="0"/>
        <pt x="918" y="586" on="1"/>
        <pt x="1049" y="470" on="0"/>
        <pt x="1049" y="317" on="1"/>
        <pt x="1049" y="162" on="0"/>
        <pt x="801" y="-20" on="0"/>
        <pt x="580" y="-20" on="1"/>
        <pt x="364" y="-20" on="0"/>
        <pt x="115" y="165" on="0"/>
        <pt x="115" y="324" on="1"/>
        <pt x="115" y="472" on="0"/>
        <pt x="338" y="680" on="0"/>
        <pt x="522" y="711" on="1"/>
        <pt x="473" y="737" on="0"/>
        <pt x="403" y="782" on="1"/>
        <pt x="368" y="782" on="1"/>
        <pt x="120" y="782" on="0"/>
        <pt x="-39" y="879" on="1"/>
        <pt x="23" y="1004" on="1"/>
        <pt x="134" y="936" on="0"/>
        <pt x="258" y="922" on="1"/>
        <pt x="216" y="964" on="0"/>
        <pt x="166" y="1089" on="0"/>
        <pt x="166" y="1145" on="1"/>
        <pt x="166" y="1301" on="0"/>
        <pt x="406" y="1483" on="0"/>
      </contour>
      <contour>
        <pt x="291" y="348" on="1"/>
        <pt x="291" y="245" on="0"/>
        <pt x="444" y="123" on="0"/>
        <pt x="580" y="123" on="1"/>
        <pt x="729" y="123" on="0"/>
        <pt x="872" y="231" on="0"/>
        <pt x="872" y="328" on="1"/>
        <pt x="872" y="411" on="0"/>
        <pt x="769" y="550" on="0"/>
        <pt x="672" y="596" on="1"/>
        <pt x="480" y="574" on="0"/>
        <pt x="291" y="453" on="0"/>
      </contour>
      <contour>
        <pt x="598" y="1337" on="1"/>
        <pt x="476" y="1337" on="0"/>
        <pt x="342" y="1236" on="0"/>
        <pt x="342" y="1133" on="1"/>
        <pt x="342" y="1068" on="0"/>
        <pt x="419" y="956" on="0"/>
        <pt x="492" y="915" on="1"/>
        <pt x="630" y="935" on="0"/>
        <pt x="766" y="990" on="0"/>
        <pt x="840" y="1076" on="0"/>
        <pt x="840" y="1141" on="1"/>
        <pt x="840" y="1227" on="0"/>
        <pt x="704" y="1337" on="0"/>
      </contour>
    </TTGlyph>
    <TTGlyph name="glyph00034" xMin="125" yMin="-20" xMax="1151" yMax="1483">
      <contour>
        <pt x="330" y="772" on="1"/>
        <pt x="382" y="875" on="0"/>
        <pt x="579" y="985" on="0"/>
        <pt x="713" y="985" on="1"/>
        <pt x="908" y="985" on="0"/>
        <pt x="1151" y="726" on="0"/>
        <pt x="1151" y="506" on="1"/>
        <pt x="1151" y="359" on="0"/>
        <pt x="1027" y="117" on="0"/>
        <pt x="802" y="-20" on="0"/>
        <pt x="664" y="-20" on="1"/>
        <pt x="399" y="-20" on="0"/>
        <pt x="125" y="362" on="0"/>
        <pt x="125" y="733" on="1"/>
        <pt x="125" y="1082" on="0"/>
        <pt x="451" y="1483" on="0"/>
        <pt x="737" y="1483" on="1"/>
        <pt x="940" y="1483" on="0"/>
        <pt x="1094" y="1397" on="1"/>
        <pt x="1030" y="1241" on="1"/>
        <pt x="971" y="1272" on="0"/>
        <pt x="830" y="1321" on="0"/>
        <pt x="745" y="1321" on="1"/>
        <pt x="543" y="1321" on="0"/>
        <pt x="317" y="1036" on="0"/>
        <pt x="317" y="772" on="1"/>
      </contour>
      <contour>
        <pt x="662" y="135" on="1"/>
        <pt x="795" y="135" on="0"/>
        <pt x="965" y="332" on="0"/>
        <pt x="965" y="489" on="1"/>
        <pt x="965" y="652" on="0"/>
        <pt x="810" y="829" on="0"/>
        <pt x="668" y="829" on="1"/>
        <pt x="575" y="829" on="0"/>
        <pt x="424" y="742" on="0"/>
        <pt x="336" y="594" on="0"/>
        <pt x="336" y="518" on="1"/>
        <pt x="336" y="417" on="0"/>
        <pt x="425" y="229" on="0"/>
        <pt x="569" y="135" on="0"/>
      </contour>
    </TTGlyph>
    <TTGlyph name="glyph00035" xMin="201" yMin="-20" xMax="1227" yMax="1483">
      <contour>
        <pt x="385" y="1251" on="1"/>
        <pt x="500" y="1483" on="0"/>
        <pt x="739" y="1483" on="1"/>
        <pt x="975" y="1483" on="0"/>
        <pt x="1227" y="1098" on="0"/>
        <pt x="1227" y="733" on="1"/>
        <pt x="1227" y="368" on="0"/>
        <pt x="962" y="-20" on="0"/>
        <pt x="709" y="-20" on="1"/>
        <pt x="600" y="-20" on="0"/>
        <pt x="432" y="91" on="0"/>
        <pt x="385" y="193" on="1"/>
        <pt x="385" y="0" on="1"/>
        <pt x="201" y="0" on="1"/>
        <pt x="201" y="1462" on="1"/>
        <pt x="385" y="1462" on="1"/>
      </contour>
      <contour>
        <pt x="385" y="424" on="1"/>
        <pt x="411" y="298" on="0"/>
        <pt x="582" y="139" on="0"/>
        <pt x="700" y="139" on="1"/>
        <pt x="1034" y="139" on="0"/>
        <pt x="1034" y="731" on="1"/>
        <pt x="1034" y="1023" on="0"/>
        <pt x="858" y="1321" on="0"/>
        <pt x="696" y="1321" on="1"/>
        <pt x="581" y="1321" on="0"/>
        <pt x="419" y="1173" on="0"/>
        <pt x="385" y="1036" on="1"/>
      </contour>
    </TTGlyph>
    <TTGlyph name="glyph00036" xMin="104" yMin="-20" xMax="1028" yMax="1483">
      <contour>
        <pt x="1028" y="391" on="1"/>
        <pt x="1028" y="200" on="0"/>
        <pt x="752" y="-20" on="0"/>
        <pt x="506" y="-20" on="1"/>
        <pt x="246" y="-20" on="0"/>
        <pt x="104" y="49" on="1"/>
        <pt x="104" y="225" on="1"/>
        <pt x="197" y="185" on="0"/>
        <pt x="418" y="139" on="0"/>
        <pt x="514" y="139" on="1"/>
        <pt x="678" y="139" on="0"/>
        <pt x="844" y="265" on="0"/>
        <pt x="844" y="375" on="1"/>
        <pt x="844" y="448" on="0"/>
        <pt x="784" y="542" on="0"/>
        <pt x="643" y="624" on="0"/>
        <pt x="500" y="676" on="1"/>
        <pt x="297" y="750" on="0"/>
        <pt x="123" y="951" on="0"/>
        <pt x="123" y="1110" on="1"/>
        <pt x="123" y="1281" on="0"/>
        <pt x="380" y="1483" on="0"/>
        <pt x="590" y="1483" on="1"/>
        <pt x="809" y="1483" on="0"/>
        <pt x="993" y="1401" on="1"/>
        <pt x="936" y="1243" on="1"/>
        <pt x="748" y="1321" on="0"/>
        <pt x="586" y="1321" on="1"/>
        <pt x="456" y="1321" on="0"/>
        <pt x="309" y="1209" on="0"/>
        <pt x="309" y="1108" on="1"/>
        <pt x="309" y="1036" on="0"/>
        <pt x="366" y="941" on="0"/>
        <pt x="493" y="863" on="0"/>
        <pt x="629" y="813" on="1"/>
        <pt x="792" y="753" on="0"/>
        <pt x="952" y="640" on="0"/>
        <pt x="1028" y="493" on="0"/>
      </contour>
    </TTGlyph>
    <TTGlyph name="glyph00037" xMin="102" yMin="0" xMax="1307" yMax="1462">
      <contour>
        <pt x="102" y="823" on="1"/>
        <pt x="102" y="974" on="0"/>
        <pt x="270" y="1157" on="0"/>
        <pt x="410" y="1157" on="1"/>
        <pt x="490" y="1157" on="0"/>
        <pt x="608" y="1073" on="0"/>
        <pt x="637" y="995" on="1"/>
        <pt x="637" y="1462" on="1"/>
        <pt x="821" y="1462" on="1"/>
        <pt x="821" y="528" on="1"/>
        <pt x="959" y="541" on="0"/>
        <pt x="1118" y="691" on="0"/>
        <pt x="1118" y="805" on="1"/>
        <pt x="1118" y="956" on="0"/>
        <pt x="971" y="1012" on="1"/>
        <pt x="1047" y="1155" on="1"/>
        <pt x="1307" y="1066" on="0"/>
        <pt x="1307" y="809" on="1"/>
        <pt x="1307" y="627" on="0"/>
        <pt x="1045" y="389" on="0"/>
        <pt x="821" y="367" on="1"/>
        <pt x="821" y="0" on="1"/>
        <pt x="637" y="0" on="1"/>
        <pt x="637" y="365" on="1"/>
        <pt x="388" y="374" on="0"/>
        <pt x="102" y="619" on="0"/>
      </contour>
      <contour>
        <pt x="637" y="645" on="1"/>
        <pt x="637" y="806" on="0"/>
        <pt x="529" y="999" on="0"/>
        <pt x="440" y="999" on="1"/>
        <pt x="373" y="999" on="0"/>
        <pt x="293" y="909" on="0"/>
        <pt x="293" y="829" on="1"/>
        <pt x="293" y="551" on="0"/>
        <pt x="637" y="524" on="1"/>
      </contour>
    </TTGlyph>
    <TTGlyph name="glyph00038" xMin="199" yMin="-18" xMax="1202" yMax="1464">
      <contour>
        <pt x="1202" y="557" on="1"/>
        <pt x="1202" y="276" on="0"/>
        <pt x="947" y="-18" on="0"/>
        <pt x="688" y="-18" on="1"/>
        <pt x="199" y="-18" on="0"/>
        <pt x="199" y="510" on="1"/>
        <pt x="199" y="1464" on="1"/>
        <pt x="383" y="1464" on="1"/>
        <pt x="383" y="547" on="1"/>
        <pt x="383" y="332" on="0"/>
        <pt x="536" y="141" on="0"/>
        <pt x="698" y="141" on="1"/>
        <pt x="1020" y="141" on="0"/>
        <pt x="1020" y="557" on="1"/>
      </contour>
    </TTGlyph>
    <TTGlyph name="glyph00039" xMin="88" yMin="-20" xMax="1040" yMax="1483">
      <contour>
        <pt x="412" y="141" on="1"/>
        <pt x="616" y="141" on="0"/>
        <pt x="846" y="455" on="0"/>
        <pt x="846" y="737" on="1"/>
        <pt x="846" y="1022" on="0"/>
        <pt x="627" y="1321" on="0"/>
        <pt x="418" y="1321" on="1"/>
        <pt x="284" y="1321" on="0"/>
        <pt x="133" y="1253" on="1"/>
        <pt x="88" y="1411" on="1"/>
        <pt x="253" y="1483" on="0"/>
        <pt x="440" y="1483" on="1"/>
        <pt x="734" y="1483" on="0"/>
        <pt x="1040" y="1100" on="0"/>
        <pt x="1040" y="735" on="1"/>
        <pt x="1040" y="380" on="0"/>
        <pt x="699" y="-20" on="0"/>
        <pt x="401" y="-20" on="1"/>
        <pt x="223" y="-20" on="0"/>
        <pt x="88" y="45" on="1"/>
        <pt x="88" y="225" on="1"/>
        <pt x="251" y="141" on="0"/>
      </contour>
    </TTGlyph>
    <TTGlyph name="glyph00040" xMin="199" yMin="0" xMax="1137" yMax="1462">
      <contour>
        <pt x="383" y="444" on="1"/>
        <pt x="199" y="444" on="1"/>
        <pt x="199" y="1462" on="1"/>
        <pt x="383" y="1462" on="1"/>
        <pt x="383" y="641" on="1"/>
        <pt x="952" y="1085" on="1"/>
        <pt x="1137" y="1085" on="1"/>
        <pt x="1137" y="0" on="1"/>
        <pt x="952" y="0" on="1"/>
        <pt x="952" y="881" on="1"/>
      </contour>
    </TTGlyph>
    <TTGlyph name="glyph00041" xMin="201" yMin="0" xMax="1212" yMax="1462">
      <contour>
        <pt x="201" y="1462" on="1"/>
        <pt x="373" y="1462" on="1"/>
        <pt x="373" y="659" on="1"/>
        <pt x="373" y="574" on="0"/>
        <pt x="363" y="294" on="0"/>
        <pt x="358" y="252" on="1"/>
        <pt x="367" y="252" on="1"/>
        <pt x="1008" y="1462" on="1"/>
        <pt x="1212" y="1462" on="1"/>
        <pt x="1212" y="0" on="1"/>
        <pt x="1040" y="0" on="1"/>
        <pt x="1040" y="795" on="1"/>
        <pt x="1040" y="899" on="0"/>
        <pt x="1054" y="1176" on="0"/>
        <pt x="1057" y="1217" on="1"/>
        <pt x="1049" y="1217" on="1"/>
        <pt x="406" y="0" on="1"/>
        <pt x="201" y="0" on="1"/>
      </contour>
    </TTGlyph>
    <TTGlyph name="glyph00042" xMin="55" yMin="0" xMax="1587" yMax="1462">
      <contour>
        <pt x="874" y="1245" on="1"/>
        <pt x="1106" y="1108" on="1"/>
        <pt x="1106" y="1462" on="1"/>
        <pt x="1296" y="1462" on="1"/>
        <pt x="1296" y="995" on="1"/>
        <pt x="1587" y="823" on="1"/>
        <pt x="1497" y="682" on="1"/>
        <pt x="1296" y="799" on="1"/>
        <pt x="1296" y="0" on="1"/>
        <pt x="1110" y="0" on="1"/>
        <pt x="795" y="313" on="1"/>
        <pt x="598" y="0" on="1"/>
        <pt x="463" y="0" on="1"/>
        <pt x="55" y="391" on="1"/>
        <pt x="188" y="526" on="1"/>
        <pt x="520" y="203" on="1"/>
        <pt x="725" y="512" on="1"/>
        <pt x="848" y="512" on="1"/>
        <pt x="1106" y="254" on="1"/>
        <pt x="1106" y="911" on="1"/>
        <pt x="780" y="1102" on="1"/>
      </contour>
    </TTGlyph>
    <TTGlyph name="glyph00043" xMin="125" yMin="-20" xMax="1290" yMax="1485">
      <contour>
        <pt x="1290" y="733" on="1"/>
        <pt x="1290" y="379" on="0"/>
        <pt x="984" y="-20" on="0"/>
        <pt x="709" y="-20" on="1"/>
        <pt x="430" y="-20" on="0"/>
        <pt x="125" y="373" on="0"/>
        <pt x="125" y="735" on="1"/>
        <pt x="125" y="1095" on="0"/>
        <pt x="429" y="1485" on="0"/>
        <pt x="711" y="1485" on="1"/>
        <pt x="986" y="1485" on="0"/>
        <pt x="1290" y="1087" on="0"/>
      </contour>
      <contour>
        <pt x="1096" y="733" on="1"/>
        <pt x="1096" y="1001" on="0"/>
        <pt x="929" y="1297" on="0"/>
        <pt x="770" y="1319" on="1"/>
        <pt x="770" y="795" on="1"/>
        <pt x="1010" y="616" on="1"/>
        <pt x="963" y="455" on="1"/>
        <pt x="770" y="594" on="1"/>
        <pt x="770" y="143" on="1"/>
        <pt x="929" y="166" on="0"/>
        <pt x="1096" y="466" on="0"/>
      </contour>
      <contour>
        <pt x="461" y="1024" on="1"/>
        <pt x="645" y="887" on="1"/>
        <pt x="645" y="1317" on="1"/>
        <pt x="486" y="1294" on="0"/>
        <pt x="319" y="998" on="0"/>
        <pt x="319" y="733" on="1"/>
        <pt x="319" y="465" on="0"/>
        <pt x="487" y="167" on="0"/>
        <pt x="645" y="143" on="1"/>
        <pt x="645" y="686" on="1"/>
        <pt x="408" y="860" on="1"/>
      </contour>
    </TTGlyph>
    <TTGlyph name="glyph00044" xMin="90" yMin="-20" xMax="979" yMax="1118">
      <contour>
        <pt x="492" y="750" on="1"/>
        <pt x="583" y="750" on="0"/>
        <pt x="738" y="681" on="0"/>
        <pt x="786" y="616" on="1"/>
        <pt x="776" y="786" on="0"/>
        <pt x="605" y="967" on="0"/>
        <pt x="471" y="967" on="1"/>
        <pt x="329" y="967" on="0"/>
        <pt x="193" y="899" on="1"/>
        <pt x="143" y="1040" on="1"/>
        <pt x="299" y="1118" on="0"/>
        <pt x="473" y="1118" on="1"/>
        <pt x="708" y="1118" on="0"/>
        <pt x="979" y="809" on="0"/>
        <pt x="979" y="549" on="1"/>
        <pt x="979" y="275" on="0"/>
        <pt x="739" y="-20" on="0"/>
        <pt x="518" y="-20" on="1"/>
        <pt x="400" y="-20" on="0"/>
        <pt x="202" y="85" on="0"/>
        <pt x="90" y="271" on="0"/>
        <pt x="90" y="381" on="1"/>
        <pt x="90" y="550" on="0"/>
        <pt x="310" y="750" on="0"/>
      </contour>
      <contour>
        <pt x="520" y="129" on="1"/>
        <pt x="631" y="129" on="0"/>
        <pt x="772" y="280" on="0"/>
        <pt x="772" y="393" on="1"/>
        <pt x="772" y="482" on="0"/>
        <pt x="625" y="604" on="0"/>
        <pt x="512" y="604" on="1"/>
        <pt x="402" y="604" on="0"/>
        <pt x="276" y="480" on="0"/>
        <pt x="276" y="371" on="1"/>
        <pt x="276" y="266" on="0"/>
        <pt x="413" y="129" on="0"/>
      </contour>
    </TTGlyph>
    <TTGlyph name="glyph00045" xMin="88" yMin="-20" xMax="920" yMax="1118">
      <contour>
        <pt x="727" y="645" on="1"/>
        <pt x="727" y="498" on="1"/>
        <pt x="578" y="498" on="1"/>
        <pt x="268" y="498" on="0"/>
        <pt x="268" y="309" on="1"/>
        <pt x="268" y="220" on="0"/>
        <pt x="416" y="127" on="0"/>
        <pt x="559" y="127" on="1"/>
        <pt x="644" y="127" on="0"/>
        <pt x="815" y="166" on="0"/>
        <pt x="915" y="213" on="1"/>
        <pt x="915" y="55" on="1"/>
        <pt x="776" y="-20" on="0"/>
        <pt x="549" y="-20" on="1"/>
        <pt x="329" y="-20" on="0"/>
        <pt x="88" y="151" on="0"/>
        <pt x="88" y="299" on="1"/>
        <pt x="88" y="398" on="0"/>
        <pt x="201" y="529" on="0"/>
        <pt x="332" y="567" on="1"/>
        <pt x="332" y="578" on="1"/>
        <pt x="233" y="606" on="0"/>
        <pt x="127" y="734" on="0"/>
        <pt x="127" y="827" on="1"/>
        <pt x="127" y="962" on="0"/>
        <pt x="358" y="1118" on="0"/>
        <pt x="549" y="1118" on="1"/>
        <pt x="660" y="1118" on="0"/>
        <pt x="833" y="1081" on="0"/>
        <pt x="920" y="1040" on="1"/>
        <pt x="852" y="897" on="1"/>
        <pt x="753" y="941" on="0"/>
        <pt x="621" y="969" on="0"/>
        <pt x="547" y="969" on="1"/>
        <pt x="299" y="969" on="0"/>
        <pt x="299" y="813" on="1"/>
        <pt x="299" y="645" on="0"/>
        <pt x="612" y="645" on="1"/>
      </contour>
    </TTGlyph>
    <TTGlyph name="glyph00046" xMin="88" yMin="-18" xMax="1012" yMax="1118">
      <contour>
        <pt x="535" y="1118" on="1"/>
        <pt x="769" y="1118" on="0"/>
        <pt x="1012" y="830" on="0"/>
        <pt x="1012" y="549" on="1"/>
        <pt x="1012" y="281" on="0"/>
        <pt x="744" y="-18" on="0"/>
        <pt x="500" y="-18" on="1"/>
        <pt x="308" y="-18" on="0"/>
        <pt x="88" y="151" on="0"/>
        <pt x="88" y="299" on="1"/>
        <pt x="88" y="409" on="0"/>
        <pt x="218" y="542" on="0"/>
        <pt x="326" y="571" on="1"/>
        <pt x="235" y="602" on="0"/>
        <pt x="131" y="728" on="0"/>
        <pt x="131" y="815" on="1"/>
        <pt x="131" y="953" on="0"/>
        <pt x="351" y="1118" on="0"/>
      </contour>
      <contour>
        <pt x="530" y="971" on="1"/>
        <pt x="421" y="971" on="0"/>
        <pt x="309" y="884" on="0"/>
        <pt x="309" y="809" on="1"/>
        <pt x="309" y="721" on="0"/>
        <pt x="454" y="641" on="0"/>
        <pt x="618" y="641" on="1"/>
        <pt x="694" y="641" on="1"/>
        <pt x="694" y="496" on="1"/>
        <pt x="610" y="496" on="1"/>
        <pt x="266" y="496" on="0"/>
        <pt x="266" y="303" on="1"/>
        <pt x="266" y="222" on="0"/>
        <pt x="390" y="127" on="0"/>
        <pt x="508" y="127" on="1"/>
        <pt x="665" y="127" on="0"/>
        <pt x="827" y="339" on="0"/>
        <pt x="827" y="549" on="1"/>
        <pt x="827" y="971" on="0"/>
      </contour>
    </TTGlyph>
    <TTGlyph name="glyph00047" xMin="113" yMin="-20" xMax="1128" yMax="1118">
      <contour>
        <pt x="1128" y="549" on="1"/>
        <pt x="1128" y="285" on="0"/>
        <pt x="858" y="-20" on="0"/>
        <pt x="616" y="-20" on="1"/>
        <pt x="387" y="-20" on="0"/>
        <pt x="113" y="289" on="0"/>
        <pt x="113" y="551" on="1"/>
        <pt x="113" y="821" on="0"/>
        <pt x="382" y="1118" on="0"/>
        <pt x="623" y="1118" on="1"/>
        <pt x="858" y="1118" on="0"/>
        <pt x="1128" y="814" on="0"/>
      </contour>
      <contour>
        <pt x="299" y="549" on="1"/>
        <pt x="299" y="341" on="0"/>
        <pt x="464" y="129" on="0"/>
        <pt x="621" y="129" on="1"/>
        <pt x="759" y="129" on="0"/>
        <pt x="919" y="296" on="0"/>
        <pt x="938" y="459" on="1"/>
        <pt x="878" y="451" on="0"/>
        <pt x="858" y="451" on="1"/>
        <pt x="679" y="451" on="0"/>
        <pt x="502" y="621" on="0"/>
        <pt x="502" y="799" on="1"/>
        <pt x="502" y="876" on="0"/>
        <pt x="526" y="956" on="1"/>
        <pt x="299" y="898" on="0"/>
      </contour>
      <contour>
        <pt x="870" y="555" on="1"/>
        <pt x="903" y="555" on="0"/>
        <pt x="942" y="561" on="1"/>
        <pt x="937" y="946" on="0"/>
        <pt x="641" y="967" on="1"/>
        <pt x="634" y="948" on="0"/>
        <pt x="621" y="864" on="0"/>
        <pt x="621" y="819" on="1"/>
        <pt x="621" y="675" on="0"/>
        <pt x="735" y="555" on="0"/>
      </contour>
    </TTGlyph>
    <TTGlyph name="glyph00048" xMin="113" yMin="-20" xMax="1128" yMax="1118">
      <contour>
        <pt x="1128" y="551" on="1"/>
        <pt x="1128" y="282" on="0"/>
        <pt x="856" y="-20" on="0"/>
        <pt x="616" y="-20" on="1"/>
        <pt x="467" y="-20" on="0"/>
        <pt x="237" y="119" on="0"/>
        <pt x="113" y="379" on="0"/>
        <pt x="113" y="551" on="1"/>
        <pt x="113" y="819" on="0"/>
        <pt x="381" y="1118" on="0"/>
        <pt x="623" y="1118" on="1"/>
        <pt x="855" y="1118" on="0"/>
        <pt x="1128" y="813" on="0"/>
      </contour>
      <contour>
        <pt x="299" y="551" on="1"/>
        <pt x="299" y="344" on="0"/>
        <pt x="462" y="129" on="0"/>
        <pt x="621" y="129" on="1"/>
        <pt x="778" y="129" on="0"/>
        <pt x="942" y="344" on="0"/>
        <pt x="942" y="551" on="1"/>
        <pt x="942" y="758" on="0"/>
        <pt x="777" y="967" on="0"/>
        <pt x="618" y="967" on="1"/>
        <pt x="299" y="967" on="0"/>
      </contour>
    </TTGlyph>
    <TTGlyph name="glyph00049" xMin="113" yMin="-20" xMax="1128" yMax="1118">
      <contour>
        <pt x="1128" y="551" on="1"/>
        <pt x="1128" y="282" on="0"/>
        <pt x="856" y="-20" on="0"/>
        <pt x="616" y="-20" on="1"/>
        <pt x="467" y="-20" on="0"/>
        <pt x="237" y="119" on="0"/>
        <pt x="113" y="379" on="0"/>
        <pt x="113" y="551" on="1"/>
        <pt x="113" y="819" on="0"/>
        <pt x="381" y="1118" on="0"/>
        <pt x="623" y="1118" on="1"/>
        <pt x="855" y="1118" on="0"/>
        <pt x="1128" y="813" on="0"/>
      </contour>
      <contour>
        <pt x="299" y="551" on="1"/>
        <pt x="299" y="361" on="0"/>
        <pt x="435" y="150" on="0"/>
        <pt x="565" y="133" on="1"/>
        <pt x="565" y="963" on="1"/>
        <pt x="434" y="946" on="0"/>
        <pt x="299" y="739" on="0"/>
      </contour>
      <contour>
        <pt x="942" y="551" on="1"/>
        <pt x="942" y="735" on="0"/>
        <pt x="806" y="944" on="0"/>
        <pt x="676" y="963" on="1"/>
        <pt x="676" y="133" on="1"/>
        <pt x="812" y="152" on="0"/>
        <pt x="942" y="372" on="0"/>
      </contour>
    </TTGlyph>
    <TTGlyph name="glyph00050" xMin="31" yMin="0" xMax="788" yMax="1098">
      <contour>
        <pt x="111" y="838" on="1"/>
        <pt x="322" y="721" on="1"/>
        <pt x="322" y="1098" on="1"/>
        <pt x="502" y="1098" on="1"/>
        <pt x="502" y="625" on="1"/>
        <pt x="788" y="471" on="1"/>
        <pt x="715" y="319" on="1"/>
        <pt x="502" y="434" on="1"/>
        <pt x="502" y="0" on="1"/>
        <pt x="322" y="0" on="1"/>
        <pt x="322" y="526" on="1"/>
        <pt x="31" y="686" on="1"/>
      </contour>
    </TTGlyph>
    <TTGlyph name="glyph00051" xMin="20" yMin="-31" xMax="893" yMax="1098">
      <contour>
        <pt x="893" y="1098" on="1"/>
        <pt x="893" y="0" on="1"/>
        <pt x="719" y="0" on="1"/>
        <pt x="682" y="77" on="0"/>
        <pt x="536" y="164" on="0"/>
        <pt x="442" y="164" on="1"/>
        <pt x="348" y="164" on="0"/>
        <pt x="216" y="66" on="0"/>
        <pt x="184" y="-31" on="1"/>
        <pt x="20" y="18" on="1"/>
        <pt x="69" y="164" on="0"/>
        <pt x="292" y="326" on="0"/>
        <pt x="442" y="326" on="1"/>
        <pt x="522" y="326" on="0"/>
        <pt x="666" y="270" on="0"/>
        <pt x="713" y="223" on="1"/>
        <pt x="713" y="1098" on="1"/>
      </contour>
    </TTGlyph>
    <TTGlyph name="glyph00052" xMin="29" yMin="0" xMax="819" yMax="1098">
      <contour>
        <pt x="819" y="0" on="1"/>
        <pt x="655" y="0" on="1"/>
        <pt x="29" y="283" on="1"/>
        <pt x="121" y="426" on="1"/>
        <pt x="639" y="193" on="1"/>
        <pt x="639" y="1098" on="1"/>
        <pt x="819" y="1098" on="1"/>
      </contour>
    </TTGlyph>
    <TTGlyph name="glyph00053" xMin="20" yMin="0" xMax="1090" yMax="1098">
      <contour>
        <pt x="1090" y="0" on="1"/>
        <pt x="924" y="0" on="1"/>
        <pt x="659" y="260" on="1"/>
        <pt x="492" y="0" on="1"/>
        <pt x="365" y="0" on="1"/>
        <pt x="20" y="344" on="1"/>
        <pt x="145" y="461" on="1"/>
        <pt x="420" y="182" on="1"/>
        <pt x="594" y="444" on="1"/>
        <pt x="707" y="444" on="1"/>
        <pt x="909" y="238" on="1"/>
        <pt x="909" y="1098" on="1"/>
        <pt x="1090" y="1098" on="1"/>
      </contour>
    </TTGlyph>
    <TTGlyph name="glyph00054" xMin="174" yMin="0" xMax="1047" yMax="1128">
      <contour>
        <pt x="174" y="0" on="1"/>
        <pt x="174" y="1098" on="1"/>
        <pt x="348" y="1098" on="1"/>
        <pt x="385" y="1021" on="0"/>
        <pt x="531" y="934" on="0"/>
        <pt x="625" y="934" on="1"/>
        <pt x="819" y="934" on="0"/>
        <pt x="883" y="1128" on="1"/>
        <pt x="1047" y="1079" on="1"/>
        <pt x="997" y="931" on="0"/>
        <pt x="774" y="772" on="0"/>
        <pt x="625" y="772" on="1"/>
        <pt x="547" y="772" on="0"/>
        <pt x="402" y="826" on="0"/>
        <pt x="354" y="874" on="1"/>
        <pt x="354" y="0" on="1"/>
      </contour>
    </TTGlyph>
    <TTGlyph name="glyph00055" xMin="111" yMin="0" xMax="911" yMax="1114">
      <contour>
        <pt x="111" y="766" on="1"/>
        <pt x="111" y="926" on="0"/>
        <pt x="317" y="1114" on="0"/>
        <pt x="494" y="1114" on="1"/>
        <pt x="692" y="1114" on="0"/>
        <pt x="911" y="915" on="0"/>
        <pt x="911" y="717" on="1"/>
        <pt x="911" y="0" on="1"/>
        <pt x="731" y="0" on="1"/>
        <pt x="731" y="414" on="1"/>
        <pt x="600" y="414" on="1"/>
        <pt x="361" y="414" on="0"/>
        <pt x="111" y="596" on="0"/>
      </contour>
      <contour>
        <pt x="731" y="705" on="1"/>
        <pt x="731" y="967" on="0"/>
        <pt x="504" y="967" on="1"/>
        <pt x="408" y="967" on="0"/>
        <pt x="295" y="861" on="0"/>
        <pt x="295" y="774" on="1"/>
        <pt x="295" y="663" on="0"/>
        <pt x="450" y="561" on="0"/>
        <pt x="627" y="561" on="1"/>
        <pt x="731" y="561" on="1"/>
      </contour>
    </TTGlyph>
    <TTGlyph name="glyph00056" xMin="82" yMin="-18" xMax="1108" yMax="1098">
      <contour>
        <pt x="82" y="283" on="1"/>
        <pt x="82" y="429" on="0"/>
        <pt x="326" y="620" on="0"/>
        <pt x="524" y="633" on="1"/>
        <pt x="524" y="1098" on="1"/>
        <pt x="705" y="1098" on="1"/>
        <pt x="705" y="631" on="1"/>
        <pt x="890" y="616" on="0"/>
        <pt x="1108" y="432" on="0"/>
        <pt x="1108" y="291" on="1"/>
        <pt x="1108" y="183" on="0"/>
        <pt x="980" y="23" on="0"/>
        <pt x="864" y="-18" on="1"/>
        <pt x="795" y="109" on="1"/>
        <pt x="924" y="159" on="0"/>
        <pt x="924" y="283" on="1"/>
        <pt x="924" y="362" on="0"/>
        <pt x="809" y="465" on="0"/>
        <pt x="705" y="479" on="1"/>
        <pt x="705" y="307" on="1"/>
        <pt x="705" y="159" on="0"/>
        <pt x="539" y="-16" on="0"/>
        <pt x="387" y="-16" on="1"/>
        <pt x="244" y="-16" on="0"/>
        <pt x="82" y="143" on="0"/>
      </contour>
      <contour>
        <pt x="524" y="487" on="1"/>
        <pt x="396" y="478" on="0"/>
        <pt x="266" y="366" on="0"/>
        <pt x="266" y="276" on="1"/>
        <pt x="266" y="204" on="0"/>
        <pt x="334" y="131" on="0"/>
        <pt x="393" y="131" on="1"/>
        <pt x="459" y="131" on="0"/>
        <pt x="524" y="221" on="0"/>
        <pt x="524" y="295" on="1"/>
      </contour>
    </TTGlyph>
    <TTGlyph name="glyph00057" xMin="88" yMin="-18" xMax="1012" yMax="1118">
      <contour>
        <pt x="535" y="1118" on="1"/>
        <pt x="769" y="1118" on="0"/>
        <pt x="1012" y="830" on="0"/>
        <pt x="1012" y="549" on="1"/>
        <pt x="1012" y="281" on="0"/>
        <pt x="744" y="-18" on="0"/>
        <pt x="500" y="-18" on="1"/>
        <pt x="308" y="-18" on="0"/>
        <pt x="88" y="151" on="0"/>
        <pt x="88" y="299" on="1"/>
        <pt x="88" y="409" on="0"/>
        <pt x="218" y="542" on="0"/>
        <pt x="326" y="571" on="1"/>
        <pt x="235" y="602" on="0"/>
        <pt x="131" y="728" on="0"/>
        <pt x="131" y="815" on="1"/>
        <pt x="131" y="951" on="0"/>
        <pt x="351" y="1118" on="0"/>
      </contour>
      <contour>
        <pt x="825" y="635" on="1"/>
        <pt x="814" y="780" on="0"/>
        <pt x="705" y="956" on="0"/>
        <pt x="612" y="981" on="1"/>
        <pt x="594" y="932" on="0"/>
        <pt x="594" y="858" on="1"/>
        <pt x="594" y="787" on="0"/>
        <pt x="656" y="667" on="0"/>
        <pt x="707" y="635" on="1"/>
      </contour>
      <contour>
        <pt x="301" y="815" on="1"/>
        <pt x="301" y="635" on="0"/>
        <pt x="569" y="635" on="1"/>
        <pt x="526" y="675" on="0"/>
        <pt x="481" y="788" on="0"/>
        <pt x="481" y="850" on="1"/>
        <pt x="481" y="922" on="0"/>
        <pt x="502" y="983" on="1"/>
        <pt x="405" y="980" on="0"/>
        <pt x="301" y="893" on="0"/>
      </contour>
      <contour>
        <pt x="508" y="127" on="1"/>
        <pt x="655" y="127" on="0"/>
        <pt x="819" y="316" on="0"/>
        <pt x="825" y="496" on="1"/>
        <pt x="610" y="496" on="1"/>
        <pt x="266" y="496" on="0"/>
        <pt x="266" y="303" on="1"/>
        <pt x="266" y="219" on="0"/>
        <pt x="400" y="127" on="0"/>
      </contour>
    </TTGlyph>
    <TTGlyph name="glyph00058" xMin="119" yMin="-20" xMax="1221" yMax="1098">
      <contour>
        <pt x="434" y="-20" on="1"/>
        <pt x="274" y="-20" on="0"/>
        <pt x="119" y="247" on="0"/>
        <pt x="119" y="514" on="1"/>
        <pt x="119" y="664" on="0"/>
        <pt x="171" y="938" on="0"/>
        <pt x="229" y="1098" on="1"/>
        <pt x="414" y="1098" on="1"/>
        <pt x="366" y="958" on="0"/>
        <pt x="299" y="670" on="0"/>
        <pt x="299" y="512" on="1"/>
        <pt x="299" y="319" on="0"/>
        <pt x="380" y="129" on="0"/>
        <pt x="455" y="129" on="1"/>
        <pt x="586" y="129" on="0"/>
        <pt x="586" y="391" on="1"/>
        <pt x="586" y="655" on="1"/>
        <pt x="758" y="655" on="1"/>
        <pt x="758" y="391" on="1"/>
        <pt x="758" y="129" on="0"/>
        <pt x="883" y="129" on="1"/>
        <pt x="1040" y="129" on="0"/>
        <pt x="1040" y="512" on="1"/>
        <pt x="1040" y="651" on="0"/>
        <pt x="993" y="916" on="0"/>
        <pt x="928" y="1098" on="1"/>
        <pt x="1114" y="1098" on="1"/>
        <pt x="1170" y="944" on="0"/>
        <pt x="1221" y="671" on="0"/>
        <pt x="1221" y="514" on="1"/>
        <pt x="1221" y="-20" on="0"/>
        <pt x="903" y="-20" on="1"/>
        <pt x="813" y="-20" on="0"/>
        <pt x="693" y="70" on="0"/>
        <pt x="670" y="147" on="1"/>
        <pt x="609" y="-20" on="0"/>
      </contour>
    </TTGlyph>
    <TTGlyph name="glyph00059" xMin="61" yMin="0" xMax="1405" yMax="1112">
      <contour>
        <pt x="1405" y="725" on="1"/>
        <pt x="1332" y="650" on="0"/>
        <pt x="1129" y="541" on="0"/>
        <pt x="1014" y="516" on="1"/>
        <pt x="848" y="0" on="1"/>
        <pt x="633" y="0" on="1"/>
        <pt x="485" y="522" on="1"/>
        <pt x="288" y="563" on="0"/>
        <pt x="61" y="763" on="0"/>
        <pt x="61" y="895" on="1"/>
        <pt x="61" y="992" on="0"/>
        <pt x="188" y="1112" on="0"/>
        <pt x="287" y="1112" on="1"/>
        <pt x="394" y="1112" on="0"/>
        <pt x="524" y="994" on="0"/>
        <pt x="561" y="860" on="1"/>
        <pt x="625" y="629" on="1"/>
        <pt x="634" y="627" on="0"/>
        <pt x="758" y="616" on="0"/>
        <pt x="762" y="618" on="1"/>
        <pt x="811" y="618" on="0"/>
        <pt x="868" y="623" on="1"/>
        <pt x="1012" y="1098" on="1"/>
        <pt x="1194" y="1098" on="1"/>
        <pt x="1057" y="659" on="1"/>
        <pt x="1117" y="679" on="0"/>
        <pt x="1247" y="763" on="0"/>
        <pt x="1303" y="821" on="1"/>
      </contour>
      <contour>
        <pt x="293" y="971" on="1"/>
        <pt x="265" y="971" on="0"/>
        <pt x="225" y="935" on="0"/>
        <pt x="225" y="893" on="1"/>
        <pt x="225" y="822" on="0"/>
        <pt x="354" y="688" on="0"/>
        <pt x="449" y="662" on="1"/>
        <pt x="387" y="860" on="1"/>
        <pt x="351" y="971" on="0"/>
      </contour>
      <contour>
        <pt x="834" y="496" on="1"/>
        <pt x="798" y="494" on="1"/>
        <pt x="760" y="494" on="1"/>
        <pt x="659" y="498" on="1"/>
        <pt x="743" y="199" on="1"/>
      </contour>
    </TTGlyph>
    <TTGlyph name="glyph00060" xMin="82" yMin="0" xMax="1108" yMax="1116">
      <contour>
        <pt x="1108" y="815" on="1"/>
        <pt x="1108" y="669" on="0"/>
        <pt x="867" y="479" on="0"/>
        <pt x="666" y="465" on="1"/>
        <pt x="666" y="0" on="1"/>
        <pt x="485" y="0" on="1"/>
        <pt x="485" y="467" on="1"/>
        <pt x="301" y="480" on="0"/>
        <pt x="82" y="666" on="0"/>
        <pt x="82" y="807" on="1"/>
        <pt x="82" y="915" on="0"/>
        <pt x="210" y="1075" on="0"/>
        <pt x="326" y="1116" on="1"/>
        <pt x="395" y="989" on="1"/>
        <pt x="266" y="937" on="0"/>
        <pt x="266" y="815" on="1"/>
        <pt x="266" y="736" on="0"/>
        <pt x="382" y="632" on="0"/>
        <pt x="485" y="618" on="1"/>
        <pt x="485" y="791" on="1"/>
        <pt x="485" y="939" on="0"/>
        <pt x="651" y="1114" on="0"/>
        <pt x="803" y="1114" on="1"/>
        <pt x="943" y="1114" on="0"/>
        <pt x="1108" y="957" on="0"/>
      </contour>
      <contour>
        <pt x="666" y="610" on="1"/>
        <pt x="794" y="620" on="0"/>
        <pt x="924" y="731" on="0"/>
        <pt x="924" y="821" on="1"/>
        <pt x="924" y="894" on="0"/>
        <pt x="855" y="967" on="0"/>
        <pt x="797" y="967" on="1"/>
        <pt x="731" y="967" on="0"/>
        <pt x="666" y="877" on="0"/>
        <pt x="666" y="803" on="1"/>
      </contour>
    </TTGlyph>
    <TTGlyph name="glyph00061" xMin="31" yMin="0" xMax="719" yMax="1098">
      <contour>
        <pt x="719" y="1098" on="1"/>
        <pt x="719" y="0" on="1"/>
        <pt x="539" y="0" on="1"/>
        <pt x="539" y="946" on="1"/>
        <pt x="31" y="946" on="1"/>
        <pt x="31" y="1098" on="1"/>
      </contour>
    </TTGlyph>
    <TTGlyph name="glyph00062" xMin="88" yMin="-18" xMax="1012" yMax="1118">
      <contour>
        <pt x="1012" y="0" on="1"/>
        <pt x="831" y="0" on="1"/>
        <pt x="831" y="150" on="1"/>
        <pt x="708" y="-18" on="0"/>
        <pt x="479" y="-18" on="1"/>
        <pt x="300" y="-18" on="0"/>
        <pt x="88" y="154" on="0"/>
        <pt x="88" y="299" on="1"/>
        <pt x="88" y="409" on="0"/>
        <pt x="218" y="542" on="0"/>
        <pt x="326" y="571" on="1"/>
        <pt x="235" y="602" on="0"/>
        <pt x="131" y="728" on="0"/>
        <pt x="131" y="815" on="1"/>
        <pt x="131" y="952" on="0"/>
        <pt x="346" y="1118" on="0"/>
        <pt x="518" y="1118" on="1"/>
        <pt x="722" y="1118" on="0"/>
        <pt x="831" y="973" on="1"/>
        <pt x="831" y="1098" on="1"/>
        <pt x="1012" y="1098" on="1"/>
      </contour>
      <contour>
        <pt x="530" y="971" on="1"/>
        <pt x="421" y="971" on="0"/>
        <pt x="309" y="884" on="0"/>
        <pt x="309" y="809" on="1"/>
        <pt x="309" y="721" on="0"/>
        <pt x="454" y="641" on="0"/>
        <pt x="618" y="641" on="1"/>
        <pt x="694" y="641" on="1"/>
        <pt x="694" y="496" on="1"/>
        <pt x="610" y="496" on="1"/>
        <pt x="266" y="496" on="0"/>
        <pt x="266" y="303" on="1"/>
        <pt x="266" y="222" on="0"/>
        <pt x="390" y="127" on="0"/>
        <pt x="508" y="127" on="1"/>
        <pt x="664" y="127" on="0"/>
        <pt x="827" y="334" on="0"/>
        <pt x="831" y="528" on="1"/>
        <pt x="831" y="567" on="1"/>
        <pt x="822" y="971" on="0"/>
      </contour>
    </TTGlyph>
    <TTGlyph name="glyph00063" xMin="31" yMin="0" xMax="885" yMax="1116">
      <contour>
        <pt x="31" y="670" on="1"/>
        <pt x="31" y="891" on="0"/>
        <pt x="253" y="1116" on="0"/>
        <pt x="471" y="1116" on="1"/>
        <pt x="885" y="1116" on="0"/>
        <pt x="885" y="705" on="1"/>
        <pt x="885" y="0" on="1"/>
        <pt x="707" y="0" on="1"/>
        <pt x="707" y="678" on="1"/>
        <pt x="707" y="827" on="0"/>
        <pt x="588" y="967" on="0"/>
        <pt x="463" y="967" on="1"/>
        <pt x="329" y="967" on="0"/>
        <pt x="205" y="819" on="0"/>
        <pt x="205" y="670" on="1"/>
      </contour>
    </TTGlyph>
    <TTGlyph name="glyph00064" xMin="113" yMin="-18" xMax="991" yMax="1118">
      <contour>
        <pt x="809" y="160" on="1"/>
        <pt x="722" y="-18" on="0"/>
        <pt x="520" y="-18" on="1"/>
        <pt x="323" y="-18" on="0"/>
        <pt x="113" y="281" on="0"/>
        <pt x="113" y="549" on="1"/>
        <pt x="113" y="824" on="0"/>
        <pt x="334" y="1118" on="0"/>
        <pt x="541" y="1118" on="1"/>
        <pt x="629" y="1118" on="0"/>
        <pt x="772" y="1033" on="0"/>
        <pt x="809" y="954" on="1"/>
        <pt x="809" y="1098" on="1"/>
        <pt x="991" y="1098" on="1"/>
        <pt x="991" y="0" on="1"/>
        <pt x="809" y="0" on="1"/>
      </contour>
      <contour>
        <pt x="555" y="971" on="1"/>
        <pt x="453" y="971" on="0"/>
        <pt x="313" y="822" on="0"/>
        <pt x="313" y="719" on="1"/>
        <pt x="313" y="659" on="0"/>
        <pt x="378" y="547" on="0"/>
        <pt x="495" y="481" on="0"/>
        <pt x="571" y="481" on="1"/>
        <pt x="670" y="481" on="0"/>
        <pt x="809" y="626" on="0"/>
        <pt x="809" y="727" on="1"/>
        <pt x="809" y="834" on="0"/>
        <pt x="667" y="971" on="0"/>
      </contour>
      <contour>
        <pt x="563" y="358" on="1"/>
        <pt x="483" y="358" on="0"/>
        <pt x="341" y="434" on="0"/>
        <pt x="299" y="500" on="1"/>
        <pt x="306" y="328" on="0"/>
        <pt x="443" y="131" on="0"/>
        <pt x="557" y="131" on="1"/>
        <pt x="649" y="131" on="0"/>
        <pt x="785" y="242" on="0"/>
        <pt x="809" y="330" on="1"/>
        <pt x="809" y="492" on="1"/>
        <pt x="767" y="427" on="0"/>
        <pt x="639" y="358" on="0"/>
      </contour>
    </TTGlyph>
    <TTGlyph name="glyph00065" xMin="113" yMin="-20" xMax="915" yMax="1118">
      <contour>
        <pt x="614" y="-20" on="1"/>
        <pt x="377" y="-20" on="0"/>
        <pt x="113" y="271" on="0"/>
        <pt x="113" y="543" on="1"/>
        <pt x="113" y="819" on="0"/>
        <pt x="380" y="1118" on="0"/>
        <pt x="627" y="1118" on="1"/>
        <pt x="707" y="1118" on="0"/>
        <pt x="864" y="1085" on="0"/>
        <pt x="915" y="1059" on="1"/>
        <pt x="860" y="909" on="1"/>
        <pt x="721" y="961" on="0"/>
        <pt x="623" y="961" on="1"/>
        <pt x="457" y="961" on="0"/>
        <pt x="299" y="752" on="0"/>
        <pt x="299" y="545" on="1"/>
        <pt x="299" y="346" on="0"/>
        <pt x="457" y="135" on="0"/>
        <pt x="612" y="135" on="1"/>
        <pt x="757" y="135" on="0"/>
        <pt x="897" y="199" on="1"/>
        <pt x="897" y="39" on="1"/>
        <pt x="783" y="-20" on="0"/>
      </contour>
    </TTGlyph>
    <TTGlyph name="glyph00066" xMin="96" yMin="0" xMax="870" yMax="1114">
      <contour>
        <pt x="487" y="365" on="1"/>
        <pt x="308" y="365" on="0"/>
        <pt x="96" y="555" on="0"/>
        <pt x="96" y="725" on="1"/>
        <pt x="96" y="902" on="0"/>
        <pt x="348" y="1114" on="0"/>
        <pt x="555" y="1114" on="1"/>
        <pt x="641" y="1114" on="0"/>
        <pt x="809" y="1067" on="0"/>
        <pt x="870" y="1026" on="1"/>
        <pt x="791" y="893" on="1"/>
        <pt x="669" y="967" on="0"/>
        <pt x="547" y="967" on="1"/>
        <pt x="423" y="967" on="0"/>
        <pt x="281" y="842" on="0"/>
        <pt x="281" y="729" on="1"/>
        <pt x="281" y="625" on="0"/>
        <pt x="409" y="510" on="0"/>
        <pt x="524" y="510" on="1"/>
        <pt x="583" y="510" on="0"/>
        <pt x="705" y="544" on="0"/>
        <pt x="739" y="571" on="1"/>
        <pt x="856" y="477" on="1"/>
        <pt x="563" y="0" on="1"/>
        <pt x="354" y="0" on="1"/>
        <pt x="608" y="377" on="1"/>
        <pt x="556" y="365" on="0"/>
      </contour>
    </TTGlyph>
    <TTGlyph name="glyph00067" xMin="119" yMin="-20" xMax="1221" yMax="1114">
      <contour>
        <pt x="299" y="512" on="1"/>
        <pt x="299" y="319" on="0"/>
        <pt x="380" y="129" on="0"/>
        <pt x="455" y="129" on="1"/>
        <pt x="586" y="129" on="0"/>
        <pt x="586" y="391" on="1"/>
        <pt x="586" y="655" on="1"/>
        <pt x="758" y="655" on="1"/>
        <pt x="758" y="391" on="1"/>
        <pt x="758" y="129" on="0"/>
        <pt x="883" y="129" on="1"/>
        <pt x="1040" y="129" on="0"/>
        <pt x="1040" y="512" on="1"/>
        <pt x="1040" y="734" on="0"/>
        <pt x="852" y="965" on="0"/>
        <pt x="670" y="965" on="1"/>
        <pt x="487" y="965" on="0"/>
        <pt x="299" y="733" on="0"/>
      </contour>
      <contour>
        <pt x="119" y="514" on="1"/>
        <pt x="119" y="693" on="0"/>
        <pt x="252" y="966" on="0"/>
        <pt x="502" y="1114" on="0"/>
        <pt x="672" y="1114" on="1"/>
        <pt x="928" y="1114" on="0"/>
        <pt x="1221" y="793" on="0"/>
        <pt x="1221" y="514" on="1"/>
        <pt x="1221" y="-20" on="0"/>
        <pt x="903" y="-20" on="1"/>
        <pt x="813" y="-20" on="0"/>
        <pt x="693" y="70" on="0"/>
        <pt x="670" y="147" on="1"/>
        <pt x="609" y="-20" on="0"/>
        <pt x="434" y="-20" on="1"/>
        <pt x="274" y="-20" on="0"/>
        <pt x="119" y="247" on="0"/>
      </contour>
    </TTGlyph>
    <TTGlyph name="glyph00068" xMin="119" yMin="-20" xMax="1221" yMax="1114">
      <contour>
        <pt x="119" y="514" on="1"/>
        <pt x="119" y="693" on="0"/>
        <pt x="252" y="966" on="0"/>
        <pt x="502" y="1114" on="0"/>
        <pt x="672" y="1114" on="1"/>
        <pt x="928" y="1114" on="0"/>
        <pt x="1221" y="793" on="0"/>
        <pt x="1221" y="514" on="1"/>
        <pt x="1221" y="-20" on="0"/>
        <pt x="903" y="-20" on="1"/>
        <pt x="813" y="-20" on="0"/>
        <pt x="693" y="70" on="0"/>
        <pt x="670" y="147" on="1"/>
        <pt x="609" y="-20" on="0"/>
        <pt x="434" y="-20" on="1"/>
        <pt x="274" y="-20" on="0"/>
        <pt x="119" y="247" on="0"/>
      </contour>
      <contour>
        <pt x="299" y="512" on="1"/>
        <pt x="299" y="319" on="0"/>
        <pt x="380" y="129" on="0"/>
        <pt x="455" y="129" on="1"/>
        <pt x="586" y="129" on="0"/>
        <pt x="586" y="391" on="1"/>
        <pt x="586" y="457" on="1"/>
        <pt x="758" y="457" on="1"/>
        <pt x="758" y="391" on="1"/>
        <pt x="758" y="129" on="0"/>
        <pt x="883" y="129" on="1"/>
        <pt x="1040" y="129" on="0"/>
        <pt x="1040" y="524" on="1"/>
        <pt x="982" y="512" on="0"/>
        <pt x="905" y="512" on="1"/>
        <pt x="739" y="512" on="0"/>
        <pt x="557" y="679" on="0"/>
        <pt x="557" y="846" on="1"/>
        <pt x="557" y="904" on="0"/>
        <pt x="567" y="954" on="1"/>
        <pt x="299" y="889" on="0"/>
      </contour>
      <contour>
        <pt x="684" y="965" on="1"/>
        <pt x="676" y="922" on="0"/>
        <pt x="676" y="874" on="1"/>
        <pt x="676" y="734" on="0"/>
        <pt x="791" y="616" on="0"/>
        <pt x="926" y="616" on="1"/>
        <pt x="957" y="616" on="0"/>
        <pt x="1017" y="624" on="0"/>
        <pt x="1034" y="627" on="1"/>
        <pt x="986" y="954" on="0"/>
      </contour>
    </TTGlyph>
    <TTGlyph name="glyph00069" xMin="166" yMin="0" xMax="967" yMax="1114">
      <contour>
        <pt x="967" y="766" on="1"/>
        <pt x="967" y="595" on="0"/>
        <pt x="715" y="414" on="0"/>
        <pt x="477" y="414" on="1"/>
        <pt x="346" y="414" on="1"/>
        <pt x="346" y="0" on="1"/>
        <pt x="166" y="0" on="1"/>
        <pt x="166" y="717" on="1"/>
        <pt x="166" y="915" on="0"/>
        <pt x="385" y="1114" on="0"/>
        <pt x="584" y="1114" on="1"/>
        <pt x="761" y="1114" on="0"/>
        <pt x="967" y="927" on="0"/>
      </contour>
      <contour>
        <pt x="346" y="561" on="1"/>
        <pt x="451" y="561" on="1"/>
        <pt x="627" y="561" on="0"/>
        <pt x="782" y="661" on="0"/>
        <pt x="782" y="774" on="1"/>
        <pt x="782" y="861" on="0"/>
        <pt x="671" y="967" on="0"/>
        <pt x="573" y="967" on="1"/>
        <pt x="346" y="967" on="0"/>
        <pt x="346" y="705" on="1"/>
      </contour>
    </TTGlyph>
    <TTGlyph name="glyph00070" xMin="82" yMin="-16" xMax="907" yMax="1112">
      <contour>
        <pt x="862" y="831" on="1"/>
        <pt x="862" y="742" on="0"/>
        <pt x="763" y="610" on="0"/>
        <pt x="664" y="575" on="1"/>
        <pt x="907" y="514" on="0"/>
        <pt x="907" y="315" on="1"/>
        <pt x="907" y="168" on="0"/>
        <pt x="654" y="-16" on="0"/>
        <pt x="444" y="-16" on="1"/>
        <pt x="238" y="-16" on="0"/>
        <pt x="92" y="49" on="1"/>
        <pt x="92" y="197" on="1"/>
        <pt x="277" y="127" on="0"/>
        <pt x="436" y="127" on="1"/>
        <pt x="572" y="127" on="0"/>
        <pt x="717" y="223" on="0"/>
        <pt x="717" y="305" on="1"/>
        <pt x="717" y="403" on="0"/>
        <pt x="560" y="496" on="0"/>
        <pt x="397" y="496" on="1"/>
        <pt x="266" y="496" on="1"/>
        <pt x="266" y="639" on="1"/>
        <pt x="352" y="639" on="1"/>
        <pt x="523" y="639" on="0"/>
        <pt x="674" y="724" on="0"/>
        <pt x="674" y="807" on="1"/>
        <pt x="674" y="882" on="0"/>
        <pt x="561" y="969" on="0"/>
        <pt x="442" y="969" on="1"/>
        <pt x="297" y="969" on="0"/>
        <pt x="160" y="887" on="1"/>
        <pt x="82" y="1014" on="1"/>
        <pt x="262" y="1112" on="0"/>
        <pt x="459" y="1112" on="1"/>
        <pt x="663" y="1112" on="0"/>
        <pt x="862" y="962" on="0"/>
      </contour>
    </TTGlyph>
    <TTGlyph name="glyph00071" xMin="174" yMin="0" xMax="862" yMax="1098">
      <contour>
        <pt x="174" y="0" on="1"/>
        <pt x="174" y="1098" on="1"/>
        <pt x="354" y="1098" on="1"/>
        <pt x="354" y="152" on="1"/>
        <pt x="862" y="152" on="1"/>
        <pt x="862" y="0" on="1"/>
      </contour>
    </TTGlyph>
    <TTGlyph name="glyph00072" xMin="-25" yMin="-23" xMax="995" yMax="1098">
      <contour>
        <pt x="596" y="559" on="1"/>
        <pt x="673" y="457" on="0"/>
        <pt x="728" y="359" on="0"/>
        <pt x="758" y="266" on="0"/>
        <pt x="758" y="223" on="1"/>
        <pt x="758" y="112" on="0"/>
        <pt x="610" y="-23" on="0"/>
        <pt x="492" y="-23" on="1"/>
        <pt x="372" y="-23" on="0"/>
        <pt x="229" y="101" on="0"/>
        <pt x="229" y="217" on="1"/>
        <pt x="229" y="260" on="0"/>
        <pt x="257" y="352" on="0"/>
        <pt x="309" y="447" on="0"/>
        <pt x="389" y="557" on="1"/>
        <pt x="-25" y="1098" on="1"/>
        <pt x="180" y="1098" on="1"/>
        <pt x="489" y="684" on="1"/>
        <pt x="793" y="1098" on="1"/>
        <pt x="995" y="1098" on="1"/>
      </contour>
      <contour>
        <pt x="596" y="221" on="1"/>
        <pt x="596" y="265" on="0"/>
        <pt x="535" y="381" on="0"/>
        <pt x="487" y="438" on="1"/>
        <pt x="440" y="379" on="0"/>
        <pt x="389" y="262" on="0"/>
        <pt x="389" y="217" on="1"/>
        <pt x="389" y="173" on="0"/>
        <pt x="442" y="117" on="0"/>
        <pt x="489" y="117" on="1"/>
        <pt x="543" y="117" on="0"/>
        <pt x="596" y="178" on="0"/>
      </contour>
    </TTGlyph>
    <TTGlyph name="glyph00073" xMin="16" yMin="-16" xMax="1139" yMax="1112">
      <contour>
        <pt x="582" y="1112" on="1"/>
        <pt x="739" y="1112" on="0"/>
        <pt x="938" y="974" on="0"/>
        <pt x="938" y="858" on="1"/>
        <pt x="938" y="672" on="0"/>
        <pt x="623" y="600" on="1"/>
        <pt x="690" y="559" on="1"/>
        <pt x="995" y="546" on="0"/>
        <pt x="1139" y="475" on="1"/>
        <pt x="1079" y="356" on="1"/>
        <pt x="1041" y="377" on="0"/>
        <pt x="898" y="431" on="0"/>
        <pt x="844" y="440" on="1"/>
        <pt x="958" y="363" on="0"/>
        <pt x="958" y="242" on="1"/>
        <pt x="958" y="169" on="0"/>
        <pt x="863" y="52" on="0"/>
        <pt x="684" y="-16" on="0"/>
        <pt x="557" y="-16" on="1"/>
        <pt x="372" y="-16" on="0"/>
        <pt x="168" y="122" on="0"/>
        <pt x="168" y="244" on="1"/>
        <pt x="168" y="350" on="0"/>
        <pt x="341" y="498" on="0"/>
        <pt x="502" y="528" on="1"/>
        <pt x="436" y="571" on="1"/>
        <pt x="172" y="575" on="0"/>
        <pt x="16" y="666" on="1"/>
        <pt x="72" y="780" on="1"/>
        <pt x="108" y="758" on="0"/>
        <pt x="251" y="703" on="0"/>
        <pt x="295" y="696" on="1"/>
        <pt x="215" y="774" on="0"/>
        <pt x="215" y="860" on="1"/>
        <pt x="215" y="973" on="0"/>
        <pt x="415" y="1112" on="0"/>
      </contour>
      <contour>
        <pt x="342" y="260" on="1"/>
        <pt x="342" y="195" on="0"/>
        <pt x="463" y="117" on="0"/>
        <pt x="567" y="117" on="1"/>
        <pt x="675" y="117" on="0"/>
        <pt x="793" y="191" on="0"/>
        <pt x="793" y="262" on="1"/>
        <pt x="793" y="309" on="0"/>
        <pt x="709" y="406" on="0"/>
        <pt x="641" y="440" on="1"/>
        <pt x="342" y="421" on="0"/>
      </contour>
      <contour>
        <pt x="573" y="981" on="1"/>
        <pt x="484" y="981" on="0"/>
        <pt x="379" y="913" on="0"/>
        <pt x="379" y="854" on="1"/>
        <pt x="379" y="809" on="0"/>
        <pt x="427" y="730" on="0"/>
        <pt x="492" y="690" on="1"/>
        <pt x="762" y="718" on="0"/>
        <pt x="762" y="854" on="1"/>
        <pt x="762" y="914" on="0"/>
        <pt x="660" y="981" on="0"/>
      </contour>
    </TTGlyph>
    <TTGlyph name="glyph00074" xMin="113" yMin="-20" xMax="1001" yMax="1118">
      <contour>
        <pt x="600" y="750" on="1"/>
        <pt x="781" y="750" on="0"/>
        <pt x="1001" y="551" on="0"/>
        <pt x="1001" y="381" on="1"/>
        <pt x="1001" y="271" on="0"/>
        <pt x="889" y="85" on="0"/>
        <pt x="692" y="-20" on="0"/>
        <pt x="573" y="-20" on="1"/>
        <pt x="353" y="-20" on="0"/>
        <pt x="113" y="275" on="0"/>
        <pt x="113" y="549" on="1"/>
        <pt x="113" y="810" on="0"/>
        <pt x="384" y="1118" on="0"/>
        <pt x="618" y="1118" on="1"/>
        <pt x="794" y="1118" on="0"/>
        <pt x="948" y="1040" on="1"/>
        <pt x="899" y="899" on="1"/>
        <pt x="760" y="967" on="0"/>
        <pt x="621" y="967" on="1"/>
        <pt x="484" y="967" on="0"/>
        <pt x="313" y="783" on="0"/>
        <pt x="305" y="616" on="1"/>
        <pt x="353" y="681" on="0"/>
        <pt x="509" y="750" on="0"/>
      </contour>
      <contour>
        <pt x="571" y="129" on="1"/>
        <pt x="677" y="129" on="0"/>
        <pt x="815" y="265" on="0"/>
        <pt x="815" y="371" on="1"/>
        <pt x="815" y="480" on="0"/>
        <pt x="689" y="604" on="0"/>
        <pt x="580" y="604" on="1"/>
        <pt x="468" y="604" on="0"/>
        <pt x="319" y="482" on="0"/>
        <pt x="319" y="393" on="1"/>
        <pt x="319" y="280" on="0"/>
        <pt x="461" y="129" on="0"/>
      </contour>
    </TTGlyph>
    <TTGlyph name="glyph00075" xMin="174" yMin="-20" xMax="1053" yMax="1116">
      <contour>
        <pt x="356" y="942" on="1"/>
        <pt x="394" y="1024" on="0"/>
        <pt x="543" y="1116" on="0"/>
        <pt x="645" y="1116" on="1"/>
        <pt x="841" y="1116" on="0"/>
        <pt x="1053" y="818" on="0"/>
        <pt x="1053" y="549" on="1"/>
        <pt x="1053" y="363" on="0"/>
        <pt x="950" y="110" on="0"/>
        <pt x="759" y="-20" on="0"/>
        <pt x="625" y="-20" on="1"/>
        <pt x="441" y="-20" on="0"/>
        <pt x="356" y="141" on="1"/>
        <pt x="356" y="0" on="1"/>
        <pt x="174" y="0" on="1"/>
        <pt x="174" y="1098" on="1"/>
        <pt x="356" y="1098" on="1"/>
      </contour>
      <contour>
        <pt x="356" y="328" on="1"/>
        <pt x="378" y="239" on="0"/>
        <pt x="512" y="129" on="0"/>
        <pt x="600" y="129" on="1"/>
        <pt x="732" y="129" on="0"/>
        <pt x="866" y="344" on="0"/>
        <pt x="866" y="549" on="1"/>
        <pt x="866" y="687" on="0"/>
        <pt x="801" y="873" on="0"/>
        <pt x="687" y="967" on="0"/>
        <pt x="608" y="967" on="1"/>
        <pt x="515" y="967" on="0"/>
        <pt x="382" y="857" on="0"/>
        <pt x="356" y="756" on="1"/>
      </contour>
    </TTGlyph>
    <TTGlyph name="glyph00076" xMin="104" yMin="-20" xMax="889" yMax="1118">
      <contour>
        <pt x="889" y="303" on="1"/>
        <pt x="889" y="149" on="0"/>
        <pt x="659" y="-20" on="0"/>
        <pt x="451" y="-20" on="1"/>
        <pt x="234" y="-20" on="0"/>
        <pt x="106" y="49" on="1"/>
        <pt x="106" y="213" on="1"/>
        <pt x="287" y="125" on="0"/>
        <pt x="455" y="125" on="1"/>
        <pt x="591" y="125" on="0"/>
        <pt x="715" y="213" on="0"/>
        <pt x="715" y="287" on="1"/>
        <pt x="715" y="352" on="0"/>
        <pt x="596" y="442" on="0"/>
        <pt x="444" y="500" on="1"/>
        <pt x="289" y="560" on="0"/>
        <pt x="163" y="645" on="0"/>
        <pt x="104" y="751" on="0"/>
        <pt x="104" y="827" on="1"/>
        <pt x="104" y="962" on="0"/>
        <pt x="324" y="1118" on="0"/>
        <pt x="516" y="1118" on="1"/>
        <pt x="703" y="1118" on="0"/>
        <pt x="866" y="1044" on="1"/>
        <pt x="805" y="901" on="1"/>
        <pt x="638" y="971" on="0"/>
        <pt x="504" y="971" on="1"/>
        <pt x="392" y="971" on="0"/>
        <pt x="276" y="900" on="0"/>
        <pt x="276" y="838" on="1"/>
        <pt x="276" y="778" on="0"/>
        <pt x="376" y="699" on="0"/>
        <pt x="559" y="629" on="1"/>
        <pt x="696" y="578" on="0"/>
        <pt x="827" y="490" on="0"/>
        <pt x="889" y="380" on="0"/>
      </contour>
    </TTGlyph>
    <TTGlyph name="glyph00077" xMin="82" yMin="0" xMax="1108" yMax="1098">
      <contour>
        <pt x="82" y="602" on="1"/>
        <pt x="82" y="728" on="0"/>
        <pt x="224" y="874" on="0"/>
        <pt x="340" y="874" on="1"/>
        <pt x="400" y="874" on="0"/>
        <pt x="503" y="815" on="0"/>
        <pt x="524" y="756" on="1"/>
        <pt x="524" y="1098" on="1"/>
        <pt x="705" y="1098" on="1"/>
        <pt x="705" y="399" on="1"/>
        <pt x="810" y="414" on="0"/>
        <pt x="930" y="520" on="0"/>
        <pt x="930" y="594" on="1"/>
        <pt x="930" y="647" on="0"/>
        <pt x="870" y="728" on="0"/>
        <pt x="805" y="745" on="1"/>
        <pt x="864" y="883" on="1"/>
        <pt x="984" y="851" on="0"/>
        <pt x="1108" y="700" on="0"/>
        <pt x="1108" y="590" on="1"/>
        <pt x="1108" y="449" on="0"/>
        <pt x="897" y="271" on="0"/>
        <pt x="705" y="250" on="1"/>
        <pt x="705" y="0" on="1"/>
        <pt x="524" y="0" on="1"/>
        <pt x="524" y="250" on="1"/>
        <pt x="318" y="261" on="0"/>
        <pt x="82" y="448" on="0"/>
      </contour>
      <contour>
        <pt x="524" y="485" on="1"/>
        <pt x="524" y="559" on="0"/>
        <pt x="486" y="671" on="0"/>
        <pt x="418" y="729" on="0"/>
        <pt x="377" y="729" on="1"/>
        <pt x="321" y="729" on="0"/>
        <pt x="266" y="660" on="0"/>
        <pt x="266" y="606" on="1"/>
        <pt x="266" y="416" on="0"/>
        <pt x="524" y="393" on="1"/>
      </contour>
    </TTGlyph>
    <TTGlyph name="glyph00078" xMin="174" yMin="-18" xMax="1028" yMax="1098">
      <contour>
        <pt x="1028" y="428" on="1"/>
        <pt x="1028" y="207" on="0"/>
        <pt x="806" y="-18" on="0"/>
        <pt x="588" y="-18" on="1"/>
        <pt x="174" y="-18" on="0"/>
        <pt x="174" y="393" on="1"/>
        <pt x="174" y="1098" on="1"/>
        <pt x="352" y="1098" on="1"/>
        <pt x="352" y="420" on="1"/>
        <pt x="352" y="271" on="0"/>
        <pt x="471" y="131" on="0"/>
        <pt x="596" y="131" on="1"/>
        <pt x="730" y="131" on="0"/>
        <pt x="854" y="278" on="0"/>
        <pt x="854" y="428" on="1"/>
      </contour>
    </TTGlyph>
    <TTGlyph name="glyph00079" xMin="68" yMin="-20" xMax="870" yMax="1118">
      <contour>
        <pt x="350" y="-20" on="1"/>
        <pt x="271" y="-20" on="0"/>
        <pt x="149" y="8" on="0"/>
        <pt x="80" y="45" on="1"/>
        <pt x="80" y="205" on="1"/>
        <pt x="139" y="176" on="0"/>
        <pt x="275" y="135" on="0"/>
        <pt x="365" y="135" on="1"/>
        <pt x="520" y="135" on="0"/>
        <pt x="684" y="344" on="0"/>
        <pt x="684" y="537" on="1"/>
        <pt x="684" y="961" on="0"/>
        <pt x="354" y="961" on="1"/>
        <pt x="215" y="961" on="0"/>
        <pt x="109" y="907" on="1"/>
        <pt x="68" y="1059" on="1"/>
        <pt x="121" y="1086" on="0"/>
        <pt x="287" y="1118" on="0"/>
        <pt x="375" y="1118" on="1"/>
        <pt x="623" y="1118" on="0"/>
        <pt x="870" y="834" on="0"/>
        <pt x="870" y="557" on="1"/>
        <pt x="870" y="283" on="0"/>
        <pt x="596" y="-20" on="0"/>
      </contour>
    </TTGlyph>
    <TTGlyph name="glyph00080" xMin="143" yMin="0" xMax="950" yMax="1096">
      <contour>
        <pt x="315" y="324" on="1"/>
        <pt x="143" y="324" on="1"/>
        <pt x="143" y="1096" on="1"/>
        <pt x="328" y="1096" on="1"/>
        <pt x="328" y="520" on="1"/>
        <pt x="776" y="821" on="1"/>
        <pt x="950" y="821" on="1"/>
        <pt x="950" y="0" on="1"/>
        <pt x="766" y="0" on="1"/>
        <pt x="766" y="618" on="1"/>
      </contour>
    </TTGlyph>
    <TTGlyph name="glyph00081" xMin="174" yMin="0" xMax="1040" yMax="1098">
      <contour>
        <pt x="174" y="1098" on="1"/>
        <pt x="344" y="1098" on="1"/>
        <pt x="344" y="489" on="1"/>
        <pt x="341" y="350" on="1"/>
        <pt x="338" y="270" on="1"/>
        <pt x="338" y="250" on="1"/>
        <pt x="852" y="1098" on="1"/>
        <pt x="1040" y="1098" on="1"/>
        <pt x="1040" y="0" on="1"/>
        <pt x="874" y="0" on="1"/>
        <pt x="874" y="602" on="1"/>
        <pt x="874" y="721" on="0"/>
        <pt x="885" y="858" on="1"/>
        <pt x="362" y="0" on="1"/>
        <pt x="174" y="0" on="1"/>
      </contour>
    </TTGlyph>
    <TTGlyph name="glyph00082" xMin="20" yMin="0" xMax="1341" yMax="1098">
      <contour>
        <pt x="1090" y="762" on="1"/>
        <pt x="1341" y="633" on="1"/>
        <pt x="1257" y="492" on="1"/>
        <pt x="1090" y="578" on="1"/>
        <pt x="1090" y="0" on="1"/>
        <pt x="924" y="0" on="1"/>
        <pt x="659" y="260" on="1"/>
        <pt x="492" y="0" on="1"/>
        <pt x="365" y="0" on="1"/>
        <pt x="20" y="344" on="1"/>
        <pt x="145" y="461" on="1"/>
        <pt x="420" y="182" on="1"/>
        <pt x="594" y="444" on="1"/>
        <pt x="707" y="444" on="1"/>
        <pt x="909" y="238" on="1"/>
        <pt x="909" y="670" on="1"/>
        <pt x="637" y="811" on="1"/>
        <pt x="723" y="950" on="1"/>
        <pt x="909" y="854" on="1"/>
        <pt x="909" y="1098" on="1"/>
        <pt x="1090" y="1098" on="1"/>
      </contour>
    </TTGlyph>
    <TTGlyph name="glyph00083" xMin="113" yMin="-20" xMax="1128" yMax="1118">
      <contour>
        <pt x="1128" y="551" on="1"/>
        <pt x="1128" y="282" on="0"/>
        <pt x="856" y="-20" on="0"/>
        <pt x="616" y="-20" on="1"/>
        <pt x="467" y="-20" on="0"/>
        <pt x="237" y="119" on="0"/>
        <pt x="113" y="379" on="0"/>
        <pt x="113" y="551" on="1"/>
        <pt x="113" y="819" on="0"/>
        <pt x="381" y="1118" on="0"/>
        <pt x="623" y="1118" on="1"/>
        <pt x="855" y="1118" on="0"/>
        <pt x="1128" y="813" on="0"/>
      </contour>
      <contour>
        <pt x="942" y="551" on="1"/>
        <pt x="942" y="735" on="0"/>
        <pt x="806" y="944" on="0"/>
        <pt x="676" y="963" on="1"/>
        <pt x="676" y="594" on="1"/>
        <pt x="848" y="465" on="1"/>
        <pt x="801" y="311" on="1"/>
        <pt x="676" y="406" on="1"/>
        <pt x="676" y="133" on="1"/>
        <pt x="812" y="152" on="0"/>
        <pt x="942" y="372" on="0"/>
      </contour>
      <contour>
        <pt x="299" y="551" on="1"/>
        <pt x="299" y="361" on="0"/>
        <pt x="435" y="150" on="0"/>
        <pt x="565" y="133" on="1"/>
        <pt x="565" y="487" on="1"/>
        <pt x="385" y="625" on="1"/>
        <pt x="432" y="778" on="1"/>
        <pt x="565" y="678" on="1"/>
        <pt x="565" y="963" on="1"/>
        <pt x="434" y="946" on="0"/>
        <pt x="299" y="739" on="0"/>
      </contour>
    </TTGlyph>
</ttFont>
